<?xml version="1.0" encoding="UTF-8" standalone="no"?>
<!-- Created with Inkscape (http://www.inkscape.org/) -->

<svg
   version="1.1"
   id="svg2"
   width="485.495"
   height="290.64853"
   viewBox="-6 -3 485.49499 290.64857"
   sodipodi:docname="UOMLOGOGR1 (copy)1.svg"
   inkscape:version="1.4 (1:1.4+202410161351+e7c3feb100)"
   xmlns:inkscape="http://www.inkscape.org/namespaces/inkscape"
   xmlns:sodipodi="http://sodipodi.sourceforge.net/DTD/sodipodi-0.dtd"
   xmlns="http://www.w3.org/2000/svg"
   xmlns:svg="http://www.w3.org/2000/svg">
  <defs
     id="defs6">
    <clipPath
       clipPathUnits="userSpaceOnUse"
       id="clipPath16">
      <path
         d="M 0,595.275 H 841.89 V 0 H 0 Z"
         id="path14" />
    </clipPath>
    <linearGradient
       x1="0"
       y1="0"
       x2="1"
       y2="0"
       gradientUnits="userSpaceOnUse"
       gradientTransform="matrix(49.775421,-110.36667,-110.36667,-49.775421,355.39062,356.10449)"
       spreadMethod="pad"
       id="linearGradient46">
      <stop
         style="stop-opacity:1;stop-color:#ffed00"
         offset="0"
         id="stop42" />
      <stop
         style="stop-opacity:1;stop-color:#ef8100"
         offset="1"
         id="stop44" />
    </linearGradient>
    <clipPath
       clipPathUnits="userSpaceOnUse"
       id="clipPath56">
      <path
         d="M 0,595.275 H 841.89 V 0 H 0 Z"
         id="path54" />
    </clipPath>
    <linearGradient
       x1="0"
       y1="0"
       x2="1"
       y2="0"
       gradientUnits="userSpaceOnUse"
       gradientTransform="matrix(0,-31.833008,-31.833008,0,321.05029,393.50586)"
       spreadMethod="pad"
       id="linearGradient90">
      <stop
         style="stop-opacity:1;stop-color:#ffed00"
         offset="0"
         id="stop86" />
      <stop
         style="stop-opacity:1;stop-color:#ef8100"
         offset="1"
         id="stop88" />
    </linearGradient>
    <clipPath
       clipPathUnits="userSpaceOnUse"
       id="clipPath100">
      <path
         d="M 0,595.275 H 841.89 V 0 H 0 Z"
         id="path98" />
    </clipPath>
    <linearGradient
       x1="0"
       y1="0"
       x2="1"
       y2="0"
       gradientUnits="userSpaceOnUse"
       gradientTransform="matrix(9.7953644,-19.852554,-19.852554,-9.7953644,283.97314,376.63672)"
       spreadMethod="pad"
       id="linearGradient122">
      <stop
         style="stop-opacity:1;stop-color:#ffed00"
         offset="0"
         id="stop118" />
      <stop
         style="stop-opacity:1;stop-color:#ef8100"
         offset="1"
         id="stop120" />
    </linearGradient>
    <clipPath
       clipPathUnits="userSpaceOnUse"
       id="clipPath132">
      <path
         d="M 0,595.275 H 841.89 V 0 H 0 Z"
         id="path130" />
    </clipPath>
    <linearGradient
       x1="0"
       y1="0"
       x2="1"
       y2="0"
       gradientUnits="userSpaceOnUse"
       gradientTransform="matrix(24.958359,-22.05397,-22.05397,-24.958359,245.60693,364.07471)"
       spreadMethod="pad"
       id="linearGradient154">
      <stop
         style="stop-opacity:1;stop-color:#ffed00"
         offset="0"
         id="stop150" />
      <stop
         style="stop-opacity:1;stop-color:#ef8100"
         offset="1"
         id="stop152" />
    </linearGradient>
    <clipPath
       clipPathUnits="userSpaceOnUse"
       id="clipPath164">
      <path
         d="M 0,595.275 H 841.89 V 0 H 0 Z"
         id="path162" />
    </clipPath>
    <linearGradient
       x1="0"
       y1="0"
       x2="1"
       y2="0"
       gradientUnits="userSpaceOnUse"
       gradientTransform="matrix(20.329941,-8.1865234,-8.1865234,-20.329941,237.42627,327.24023)"
       spreadMethod="pad"
       id="linearGradient186">
      <stop
         style="stop-opacity:1;stop-color:#ffed00"
         offset="0"
         id="stop182" />
      <stop
         style="stop-opacity:1;stop-color:#ef8100"
         offset="1"
         id="stop184" />
    </linearGradient>
    <clipPath
       clipPathUnits="userSpaceOnUse"
       id="clipPath196">
      <path
         d="M 0,595.275 H 841.89 V 0 H 0 Z"
         id="path194" />
    </clipPath>
    <linearGradient
       x1="0"
       y1="0"
       x2="1"
       y2="0"
       gradientUnits="userSpaceOnUse"
       gradientTransform="matrix(30.668777,0.3518066,0.3518066,-30.668777,224.29736,294.89258)"
       spreadMethod="pad"
       id="linearGradient218">
      <stop
         style="stop-opacity:1;stop-color:#ffed00"
         offset="0"
         id="stop214" />
      <stop
         style="stop-opacity:1;stop-color:#ef8100"
         offset="1"
         id="stop216" />
    </linearGradient>
    <clipPath
       clipPathUnits="userSpaceOnUse"
       id="clipPath228">
      <path
         d="M 0,595.275 H 841.89 V 0 H 0 Z"
         id="path226" />
    </clipPath>
    <linearGradient
       x1="0"
       y1="0"
       x2="1"
       y2="0"
       gradientUnits="userSpaceOnUse"
       gradientTransform="matrix(19.74559,12.190979,12.190979,-19.74559,241.36182,260.97949)"
       spreadMethod="pad"
       id="linearGradient250">
      <stop
         style="stop-opacity:1;stop-color:#ffed00"
         offset="0"
         id="stop246" />
      <stop
         style="stop-opacity:1;stop-color:#ef8100"
         offset="1"
         id="stop248" />
    </linearGradient>
    <clipPath
       clipPathUnits="userSpaceOnUse"
       id="clipPath260">
      <path
         d="M 0,595.275 H 841.89 V 0 H 0 Z"
         id="path258" />
    </clipPath>
    <linearGradient
       x1="0"
       y1="0"
       x2="1"
       y2="0"
       gradientUnits="userSpaceOnUse"
       gradientTransform="matrix(21.757614,24.164535,24.164535,-21.757614,254.93213,227.74121)"
       spreadMethod="pad"
       id="linearGradient282">
      <stop
         style="stop-opacity:1;stop-color:#ffed00"
         offset="0"
         id="stop278" />
      <stop
         style="stop-opacity:1;stop-color:#ef8100"
         offset="1"
         id="stop280" />
    </linearGradient>
    <clipPath
       clipPathUnits="userSpaceOnUse"
       id="clipPath292">
      <path
         d="M 0,595.275 H 841.89 V 0 H 0 Z"
         id="path290" />
    </clipPath>
    <linearGradient
       x1="0"
       y1="0"
       x2="1"
       y2="0"
       gradientUnits="userSpaceOnUse"
       gradientTransform="matrix(6.3448334,20.526627,20.526627,-6.3448334,292.62939,217.95117)"
       spreadMethod="pad"
       id="linearGradient314">
      <stop
         style="stop-opacity:1;stop-color:#ffed00"
         offset="0"
         id="stop310" />
      <stop
         style="stop-opacity:1;stop-color:#ef8100"
         offset="1"
         id="stop312" />
    </linearGradient>
    <clipPath
       clipPathUnits="userSpaceOnUse"
       id="clipPath324">
      <path
         d="M 0,595.275 H 841.89 V 0 H 0 Z"
         id="path322" />
    </clipPath>
    <linearGradient
       x1="0"
       y1="0"
       x2="1"
       y2="0"
       gradientUnits="userSpaceOnUse"
       gradientTransform="matrix(-0.9954834,31.392425,31.392425,0.9954834,323.76123,202.33691)"
       spreadMethod="pad"
       id="linearGradient346">
      <stop
         style="stop-opacity:1;stop-color:#ffed00"
         offset="0"
         id="stop342" />
      <stop
         style="stop-opacity:1;stop-color:#ef8100"
         offset="1"
         id="stop344" />
    </linearGradient>
    <clipPath
       clipPathUnits="userSpaceOnUse"
       id="clipPath356">
      <path
         d="M 0,595.275 H 841.89 V 0 H 0 Z"
         id="path354" />
    </clipPath>
    <radialGradient
       fx="0"
       fy="0"
       cx="0"
       cy="0"
       r="1"
       gradientUnits="userSpaceOnUse"
       gradientTransform="matrix(71.788803,0,0,-71.788803,312.7749,307.09082)"
       spreadMethod="pad"
       id="radialGradient380">
      <stop
         style="stop-opacity:1;stop-color:#ffed00"
         offset="0"
         id="stop374" />
      <stop
         style="stop-opacity:1;stop-color:#ffed00"
         offset="0.37851141"
         id="stop376" />
      <stop
         style="stop-opacity:1;stop-color:#ef8100"
         offset="1"
         id="stop378" />
    </radialGradient>
  </defs>
  <sodipodi:namedview
     id="namedview4"
     pagecolor="#ffffff"
     bordercolor="#000000"
     borderopacity="0.25"
     inkscape:showpageshadow="2"
     inkscape:pageopacity="0.0"
     inkscape:pagecheckerboard="0"
     inkscape:deskcolor="#d1d1d1"
     inkscape:zoom="2.8284271"
     inkscape:cx="305.29335"
     inkscape:cy="149.72986"
     inkscape:window-width="1920"
     inkscape:window-height="990"
     inkscape:window-x="0"
     inkscape:window-y="28"
     inkscape:window-maximized="1"
     inkscape:current-layer="g8" />
  <g
     id="g8"
     inkscape:groupmode="layer"
     inkscape:label="UOMLOGOGR"
     transform="matrix(1.3333333,0,0,-1.3333333,-298.14813,525.59145)">
    <g
       id="g10">
      <g
         id="g12"
         clip-path="url(#clipPath16)">
        <g
           id="g18"
           transform="translate(378.125,182.959)">
          <path
             d="m 0,0 -1.208,21.37 c -0.046,0.581 -0.449,1.06 -1.024,1.193 -0.556,0.128 -1.139,-0.133 -1.413,-0.627 l -5.796,-10.445 -6.007,10.46 c -0.281,0.489 -0.875,0.74 -1.426,0.612 -0.564,-0.145 -0.978,-0.627 -0.994,-1.214 l -0.956,-21.36 c -0.022,-0.709 0.529,-1.304 1.252,-1.348 0.723,-0.022 1.322,0.527 1.354,1.231 l 0.751,16.91 4.916,-8.568 c 0.231,-0.407 0.672,-0.666 1.128,-0.649 0.465,0 0.905,0.257 1.131,0.661 L -3.56,16.75 -2.595,-0.14 C -2.554,-0.848 -1.937,-1.402 -1.22,-1.359 -0.51,-1.315 0.029,-0.708 0,0 M 92.211,1.645 C 92.373,1.236 92.321,0.785 92.086,0.43 91.843,0.075 91.448,-0.14 91.018,-0.14 h -15.82 c -0.435,0 -0.85,0.215 -1.092,0.57 -0.233,0.381 -0.273,0.839 -0.098,1.23 l 8.105,19.07 c 0.197,0.474 0.672,0.78 1.202,0.78 0.529,0 0.993,-0.322 1.203,-0.811 z M 83.274,16.82 77.161,2.455 h 11.924 z m -39.967,5.116 c -0.471,0.536 -1.282,0.574 -1.832,0.106 l -7.043,-6.339 0.035,5.586 c 0.011,0.716 -0.572,1.301 -1.281,1.317 -0.718,0 -1.306,-0.585 -1.319,-1.295 L 31.751,-0.048 c -0.013,-0.72 0.557,-1.311 1.277,-1.311 0.713,-0.01 1.305,0.571 1.305,1.289 l 0.062,10.159 7.802,-8.794 c 0.449,-0.56 1.262,-0.64 1.819,-0.193 0.566,0.451 0.633,1.273 0.198,1.832 h -0.008 l -8.869,10.114 7.878,7.05 c 0.519,0.472 0.578,1.294 0.092,1.838 M 23.986,4.97 C 24.228,4.287 23.871,3.541 23.188,3.31 22.518,3.079 21.783,3.434 21.542,4.104 L 20.301,7.703 12.68,7.688 9.372,-0.547 C 9.098,-1.208 8.345,-1.531 7.685,-1.272 c -0.664,0.268 -1,1.031 -0.726,1.697 l 3.621,9.03 c 0.024,0.033 0.032,0.06 0.056,0.098 l 4.953,12.372 c 0.202,0.493 0.705,0.821 1.241,0.81 0.538,-0.022 1.005,-0.354 1.193,-0.875 z m -4.623,5.312 -2.646,7.479 -2.997,-7.495 z M 176.739,4.97 c 0.226,-0.683 -0.122,-1.429 -0.793,-1.66 -0.667,-0.231 -1.42,0.124 -1.655,0.794 l -0.549,1.537 h -8.035 l -2.37,-6.167 c -0.258,-0.676 -1.015,-1.005 -1.67,-0.746 -0.672,0.262 -1.006,0.999 -0.753,1.669 l 7.821,20.425 c 0.2,0.499 0.695,0.832 1.237,0.823 0.537,-0.006 1.025,-0.345 1.208,-0.866 z m -3.91,3.26 -2.933,8.349 -3.202,-8.349 z M 152.47,0.075 V 21.3 c 0,0.716 -0.592,1.306 -1.312,1.306 -0.702,0 -1.295,-0.59 -1.295,-1.306 V 0.075 c 0,-0.725 0.593,-1.293 1.295,-1.293 0.72,0 1.312,0.568 1.312,1.293 m -10.902,22.531 c -0.718,0 -1.298,-0.59 -1.298,-1.306 V 8.198 l -10.969,12.205 c -0.354,0.409 -0.939,0.542 -1.414,0.345 -0.522,-0.188 -0.849,-0.673 -0.849,-1.21 V -0.06 c 0,-0.718 0.581,-1.299 1.306,-1.299 0.708,0 1.292,0.581 1.292,1.299 V 16.149 L 140.597,3.928 c 0.371,-0.392 0.934,-0.527 1.44,-0.334 0.494,0.183 0.827,0.677 0.827,1.214 V 21.3 c 0,0.716 -0.591,1.306 -1.296,1.306 m -32.51,-23.051 c -6.164,0 -11.171,5.007 -11.171,11.163 0,6.156 5.007,11.163 11.171,11.163 6.159,0 11.163,-5.007 11.163,-11.163 0,-6.156 -5.004,-11.163 -11.163,-11.163 m -8.564,11.163 c 0,-4.723 3.834,-8.564 8.564,-8.564 4.724,0 8.573,3.841 8.573,8.564 0,4.721 -3.849,8.568 -8.573,8.568 -4.73,0 -8.564,-3.847 -8.564,-8.568 m 89.999,20.483 c -5.566,0 -10.105,4.539 -10.105,10.105 0,5.576 4.539,10.105 10.105,10.105 5.587,0 10.114,-4.529 10.114,-10.105 0,-5.566 -4.527,-10.105 -10.114,-10.105 m -7.5,10.105 c 0,-4.141 3.374,-7.521 7.5,-7.521 4.158,0 7.521,3.38 7.521,7.521 0,4.142 -3.363,7.51 -7.521,7.51 -4.126,0 -7.5,-3.368 -7.5,-7.51 m -7.784,-9.305 V 50.39 c 0,0.725 -0.58,1.296 -1.294,1.296 -0.721,0 -1.311,-0.571 -1.311,-1.296 V 32.001 c 0,-0.708 0.59,-1.288 1.311,-1.288 0.714,0 1.294,0.58 1.294,1.288 m -7.999,0.166 -0.827,18.518 c -0.022,0.602 -0.467,1.114 -1.052,1.215 -0.592,0.118 -1.194,-0.183 -1.431,-0.748 l -5.581,-12.505 -5.699,12.516 c -0.253,0.554 -0.828,0.855 -1.413,0.742 -0.591,-0.096 -1.016,-0.591 -1.064,-1.176 L 148.806,32.2 c -0.054,-0.715 0.489,-1.337 1.214,-1.386 0.699,-0.048 1.333,0.49 1.375,1.203 l 0.972,13.442 4.798,-10.502 c 0.198,-0.474 0.654,-0.769 1.17,-0.769 0.506,0 0.968,0.306 1.172,0.78 l 4.534,10.126 0.574,-13.039 c 0.043,-0.72 0.641,-1.272 1.36,-1.241 0.719,0.033 1.268,0.64 1.235,1.353 m -25.227,19.632 c -0.71,0 -1.29,-0.581 -1.29,-1.307 V 42.74 h -9.444 v 7.752 c 0,0.726 -0.566,1.307 -1.291,1.307 -0.714,0 -1.301,-0.581 -1.301,-1.307 V 32.12 c 0,-0.725 0.587,-1.306 1.301,-1.306 0.725,0 1.291,0.581 1.291,1.306 v 8.015 h 9.444 v -5.05 c 0,-0.709 0.58,-1.3 1.29,-1.3 0.731,0 1.311,0.591 1.311,1.3 v 15.407 c 0,0.726 -0.58,1.307 -1.311,1.307 m -17.851,-1.092 v 0 h -13.8 c -0.7,0 -1.282,-0.58 -1.282,-1.294 0,-0.721 0.582,-1.29 1.282,-1.29 h 5.505 V 31.99 c 0,-0.719 0.591,-1.3 1.301,-1.3 0.716,0 1.294,0.581 1.294,1.3 v 16.133 h 5.7 c 0.712,0 1.298,0.569 1.298,1.29 0,0.714 -0.586,1.294 -1.298,1.294 m 74.145,-49.552 -10.493,3.911 6.222,4.001 c 0.398,0.248 0.613,0.684 0.601,1.141 -0.009,0.45 -0.279,0.875 -0.676,1.091 l -5.125,2.825 8.907,2.616 c 0.686,0.209 1.097,0.918 0.87,1.607 -0.193,0.691 -0.914,1.079 -1.611,0.885 l -11.878,-3.497 c -0.505,-0.139 -0.875,-0.581 -0.929,-1.107 -0.054,-0.521 0.204,-1.02 0.655,-1.284 l 5.952,-3.266 -6.565,-4.223 c -0.419,-0.279 -0.644,-0.751 -0.58,-1.246 0.048,-0.483 0.364,-0.902 0.823,-1.073 l 12.913,-4.819 c 0.672,-0.248 1.424,0.096 1.688,0.762 0.23,0.676 -0.113,1.43 -0.774,1.676 m -92.972,32.335 -9.462,2.835 6.023,3.89 c 0.385,0.23 0.611,0.673 0.592,1.129 -0.013,0.457 -0.268,0.881 -0.664,1.091 l -5.273,2.911 8.967,3.003 c 0.675,0.231 1.043,0.978 0.818,1.649 -0.238,0.666 -0.968,1.042 -1.651,0.811 L 92.901,46.86 c -0.489,-0.161 -0.833,-0.601 -0.888,-1.122 -0.035,-0.505 0.217,-0.995 0.663,-1.246 l 5.963,-3.282 -6.571,-4.218 c -0.432,-0.285 -0.648,-0.773 -0.583,-1.273 0.071,-0.505 0.42,-0.912 0.904,-1.074 l 12.177,-3.637 c 0.691,-0.214 1.411,0.172 1.613,0.864 0.21,0.684 -0.17,1.403 -0.874,1.618 M 86.512,32.12 v 18.372 c 0,0.726 -0.577,1.307 -1.294,1.307 -0.719,0 -1.293,-0.581 -1.293,-1.307 V 32.12 c 0,-0.725 0.574,-1.306 1.293,-1.306 0.717,0 1.294,0.581 1.294,1.306 m -9.27,19.679 H 65.061 c -0.722,0 -1.3,-0.581 -1.3,-1.307 V 32.237 c 0,-0.708 0.578,-1.294 1.3,-1.294 0.71,0 1.292,0.586 1.292,1.294 v 16.961 h 9.596 V 35.354 c 0,-0.714 0.577,-1.295 1.293,-1.295 0.712,0 1.303,0.581 1.303,1.295 v 15.138 c 0,0.726 -0.591,1.307 -1.303,1.307 M 67.938,5.109 c -0.645,0.306 -1.42,0.034 -1.725,-0.618 0.022,0.037 0.041,0.071 0.041,0.071 C 65.986,4.163 63.14,1.376 59.826,1.966 56.211,2.621 54.744,6.414 54.561,9.858 h 10.988 c 0.713,0 1.304,0.585 1.304,1.294 0,0.715 -0.591,1.295 -1.304,1.295 H 54.65 c 0.279,2.337 1.079,5.324 3.094,6.216 4.929,2.191 8.173,-2.063 8.302,-2.246 0.431,-0.573 1.247,-0.692 1.821,-0.268 0.576,0.43 0.696,1.256 0.269,1.822 -1.587,2.122 -6.008,5.477 -11.443,3.067 -4.963,-2.209 -4.759,-10.605 -4.751,-10.96 0.191,-5.7 3.108,-9.895 7.435,-10.669 4.648,-0.833 8.614,2.762 9.186,3.97 0.296,0.65 0.031,1.429 -0.625,1.73 m -8.266,31.152 c -0.655,0.308 -1.425,0.027 -1.732,-0.622 0.019,0.049 0.039,0.08 0.039,0.08 -0.255,-0.376 -2.79,-2.868 -5.79,-2.326 -3.215,0.564 -4.537,3.927 -4.73,7.021 h 9.94 c 0.713,0 1.296,0.575 1.296,1.29 0,0.72 -0.583,1.3 -1.296,1.3 h -9.847 c 0.251,2.1 0.973,4.701 2.754,5.494 4.397,1.956 7.365,-1.863 7.504,-2.035 v 0.011 c 0.415,-0.57 1.237,-0.693 1.808,-0.263 0.57,0.424 0.692,1.241 0.265,1.81 -1.475,1.977 -5.576,5.098 -10.621,2.847 -4.644,-2.052 -4.439,-9.819 -4.431,-10.142 0.173,-5.291 2.881,-9.17 6.91,-9.89 4.317,-0.773 8.009,2.573 8.55,3.696 0.296,0.651 0.019,1.418 -0.619,1.729 m -20.3,17.3 c -0.718,0 -1.282,-0.598 -1.282,-1.317 V 38.813 L 27.537,51.46 c -0.36,0.43 -0.93,0.58 -1.442,0.386 -0.522,-0.182 -0.863,-0.672 -0.863,-1.219 v -18.39 c 0,-0.708 0.592,-1.294 1.295,-1.294 0.723,0 1.306,0.586 1.306,1.294 v 14.806 l 10.54,-12.656 c 0.354,-0.419 0.926,-0.575 1.444,-0.387 0.518,0.188 0.857,0.672 0.857,1.22 v 17.024 c 0,0.719 -0.586,1.317 -1.302,1.317 M 20.024,35.858 c 0.277,-0.644 -0.027,-1.407 -0.682,-1.697 -0.658,-0.284 -1.426,0.027 -1.717,0.683 L 16.35,37.847 H 8.743 L 6.39,31.904 C 6.116,31.233 5.363,30.905 4.69,31.169 4.029,31.438 3.704,32.189 3.957,32.856 l 7.198,18.12 c 0.188,0.484 0.647,0.811 1.187,0.823 0.515,0.01 1.002,-0.308 1.212,-0.796 z m -4.781,4.582 -2.842,6.64 -2.643,-6.64 z m -29.184,8.478 V 32.12 c 0,-0.725 -0.58,-1.306 -1.291,-1.306 -0.712,0 -1.314,0.581 -1.314,1.306 v 18.109 c 0,0.709 0.602,1.295 1.314,1.295 h 12.159 c 0.726,0 1.302,-0.586 1.302,-1.295 V 35.085 c 0,-0.709 -0.576,-1.3 -1.302,-1.3 -0.71,0 -1.302,0.591 -1.302,1.3 v 13.833 z m 169.795,51.486 h 1.44 l 1.095,2.444 h 4.008 l 1.107,-2.444 h 1.514 l -3.825,8.182 h -1.536 z m 2.965,3.401 1.606,3.598 1.585,-3.598 z m -9.353,-3.401 h 1.387 v 8.182 h -1.387 z m -9.772,0 h 1.403 v 7.215 h 3.223 v 0.967 h -7.848 v -0.967 h 3.222 z m -16.346,0 h 1.444 l 1.097,2.444 h 4.012 L 131,100.404 h 1.504 l -3.82,8.182 h -1.54 z m 2.952,3.401 1.614,3.598 1.587,-3.598 z m -14.696,-3.401 h 1.416 v 3.449 h 2.103 c 0.328,0 0.601,0 0.841,0.009 0.223,0.013 0.563,0.045 1.056,0.115 0.486,0.048 0.923,0.305 1.326,0.752 0.388,0.445 0.602,0.955 0.602,1.536 0,0.752 -0.282,1.321 -0.82,1.718 -0.561,0.399 -1.305,0.603 -2.236,0.603 h -0.871 -3.417 z m 1.416,4.438 v 2.765 h 2.415 c 0.606,0 1.092,-0.123 1.514,-0.365 0.384,-0.247 0.577,-0.601 0.577,-1.079 0,-0.5 -0.193,-0.834 -0.577,-1.037 -0.422,-0.183 -0.922,-0.284 -1.588,-0.284 z m -14.381,-4.438 h 1.394 v 2.847 l 1.569,1.263 3.593,-4.12 1.722,0.01 -4.286,4.915 4.168,3.267 h -1.841 l -4.925,-3.959 v 3.959 h -1.394 z m -5.706,4.077 c 0,1.262 -0.41,2.299 -1.232,3.105 -0.828,0.817 -1.982,1.226 -3.509,1.226 -1.506,0 -2.698,-0.419 -3.577,-1.237 -0.859,-0.81 -1.3,-1.847 -1.3,-3.094 0,-1.252 0.43,-2.266 1.284,-3.078 0.854,-0.805 2.044,-1.214 3.551,-1.214 1.464,0 2.634,0.409 3.486,1.219 0.87,0.807 1.297,1.838 1.297,3.073 m -4.783,3.298 c 1.102,0 1.936,-0.316 2.482,-0.955 0.594,-0.639 0.865,-1.414 0.865,-2.332 0,-0.914 -0.271,-1.697 -0.847,-2.326 -0.564,-0.634 -1.39,-0.951 -2.5,-0.951 -1.099,0 -1.948,0.317 -2.52,0.951 -0.594,0.629 -0.881,1.412 -0.881,2.326 0,0.907 0.287,1.682 0.881,2.332 0.572,0.633 1.421,0.955 2.52,0.955 m -18.847,-0.397 c 0.026,-0.117 0.052,-0.226 0.093,-0.333 0.04,-0.113 0.094,-0.236 0.153,-0.375 l 2.562,-6.27 h 1.332 l 2.62,6.27 c 0.096,0.23 0.19,0.477 0.222,0.72 v -6.99 h 1.365 v 8.182 h -1.983 l -2.625,-6.27 c -0.073,-0.112 -0.104,-0.204 -0.113,-0.262 -0.022,-0.054 -0.063,-0.183 -0.113,-0.409 l -0.242,0.671 -2.536,6.27 h -2.016 v -8.182 h 1.281 z m -15.455,-6.978 h 1.403 v 3.815 h 5.326 v -3.815 h 1.361 v 8.182 h -1.361 v -3.369 h -5.326 v 3.369 h -1.403 z m -14.531,0 h 9.627 l -4.048,8.182 h -1.525 z m 4.825,7.01 2.886,-6.011 h -5.817 z m 107.995,6.576 h 1.803 v 3.814 h 6.824 v -3.814 h 1.751 v 8.17 h -1.751 v -3.351 h -6.824 v 3.351 h -1.803 z m -16.578,0 h 1.791 v 2.858 l 2.001,1.263 4.587,-4.121 h 2.191 l -5.467,4.915 5.355,3.245 -2.38,0.01 -6.287,-3.937 v 3.937 h -1.791 z m -9.609,0 h 1.794 v 8.17 h -1.794 z m -18.184,0 h 1.678 v 6.634 c 0.143,-0.225 0.317,-0.429 0.502,-0.602 l 6.241,-6.032 h 1.941 v 8.17 h -1.682 v -6.629 c -0.152,0.258 -0.354,0.49 -0.609,0.694 l -6.124,5.935 h -1.947 z m -18.136,0 h 1.79 v 3.814 h 6.816 v -3.814 h 1.741 v 8.17 h -1.741 v -3.351 H 91.42 v 3.351 h -1.79 z m -11.06,8.17 h -1.856 l -4.61,-8.17 1.852,0.011 3.662,6.832 3.787,-6.832 1.83,-0.011 z m -16.123,0 h -1.86 l -4.609,-8.17 1.847,0.011 3.666,6.832 3.785,-6.832 1.829,-0.011 z m -21.703,0 h 9.369 v -1.01 h -7.58 v -2.433 h 6.963 v -0.946 h -6.963 v -2.776 h 7.726 v -1.005 h -9.515 z"
             style="fill:#ffffff;fill-opacity:1;fill-rule:nonzero;stroke:none"
             id="path20" />
        </g>
        <g
           id="g22"
           transform="translate(394.0796,375.4561)">
          <path
             d="m 0,0 h -7.048 c -2.885,0 0.161,-5.13 -1.131,-7.054 -3.315,-0.913 -8.001,0.097 -11.407,-0.365 -3.412,0.838 -1.293,4.609 -2.21,7.183 C -23.422,0.059 -26.685,0 -29.943,0 c -1.107,-2.493 1.699,-5.941 -1.242,-7.419 -3.964,-0.086 -8.28,-0.365 -11.877,-0.274 -2.302,0.929 -1.201,3.679 -1.563,5.431 -0.371,0.548 0.411,2.165 -0.696,2.262 -1.934,-0.473 -5.321,0.425 -6.906,-0.645 -0.583,-2.154 0.169,-5.361 0.384,-7.606 3.325,-3.191 6.723,-10.6 4.089,-20.78 0.571,-1.069 45.527,-1.084 45.527,-1.084 0,-1.032 -0.833,11.366 -0.671,13.618 0.631,5.275 2.713,7.015 4.322,8.326 l -0.307,7.564 z"
             style="fill:#ffe148;fill-opacity:1;fill-rule:nonzero;stroke:none"
             id="path24" />
        </g>
        <g
           id="g26"
           transform="translate(347.1499,346.8872)">
          <path
             d="m 0,0 c 3.899,-0.604 27.642,-0.843 43.94,-0.86 -0.204,2.671 -0.73,11.072 -0.593,12.98 0.636,5.334 2.691,7.265 4.305,8.592 l -0.276,6.83 -0.621,0.339 h -6.873 c -0.231,0 -0.385,-0.043 -0.457,-0.129 -0.293,-0.349 -0.086,-1.561 0.083,-2.536 0.256,-1.49 0.522,-3.032 -0.188,-4.085 l -0.139,-0.212 -0.247,-0.067 c -1.048,-0.288 -2.291,-0.421 -3.919,-0.421 -0.916,0 -1.854,0.04 -2.788,0.08 -1.778,0.078 -3.576,0.123 -4.792,-0.043 l -0.129,-0.016 -0.126,0.029 c -2.751,0.677 -2.622,3 -2.523,4.87 0.046,0.814 0.092,1.652 -0.064,2.369 -1.219,0.153 -3.127,0.167 -4.851,0.167 l -2.264,-0.006 c -0.175,-0.747 -0.027,-1.622 0.131,-2.538 0.285,-1.649 0.637,-3.706 -1.555,-4.808 l -0.293,-0.072 c -1.362,-0.03 -2.763,-0.081 -4.163,-0.135 -2.643,-0.099 -5.38,-0.202 -7.747,-0.14 l -0.242,0.051 c -2.06,0.83 -1.984,2.85 -1.93,4.327 0.021,0.554 0.04,1.078 -0.03,1.505 -0.177,0.37 -0.15,0.801 -0.121,1.219 0.011,0.164 0.027,0.414 0.011,0.562 -0.699,-0.138 -1.741,-0.127 -2.837,-0.092 -0.419,0.016 -0.84,0.03 -1.249,0.03 -0.708,0 -1.565,-0.038 -2.151,-0.314 -0.299,-1.456 -0.019,-3.441 0.231,-5.206 0.08,-0.575 0.158,-1.126 0.213,-1.636 C -0.771,17.142 2.317,9.767 0,0 m 44.701,-2.296 -0.616,0.062 c -44.757,0.029 -45.27,0.988 -45.517,1.447 l -0.127,0.237 0.068,0.26 c 2.507,9.678 -0.534,16.882 -3.897,20.11 l -0.186,0.178 -0.024,0.255 c -0.054,0.559 -0.14,1.176 -0.231,1.824 -0.284,2.006 -0.604,4.281 -0.132,6.027 l 0.067,0.247 0.213,0.143 c 0.876,0.59 2.076,0.671 3.134,0.671 0.425,0 0.863,-0.013 1.298,-0.03 1.091,-0.037 2.111,-0.042 2.694,0.102 l 0.11,0.027 0.112,-0.01 C 3.03,29.135 2.938,27.776 2.9,27.199 2.887,27.014 2.868,26.737 2.895,26.651 L 2.979,26.447 C 3.103,25.84 3.078,25.166 3.054,24.515 2.997,22.998 3.016,22.028 4.019,21.562 c 2.304,-0.057 4.958,0.045 7.528,0.142 1.351,0.05 2.704,0.099 4.018,0.131 1.088,0.615 0.983,1.566 0.688,3.277 -0.202,1.184 -0.433,2.525 0.105,3.737 l 0.182,0.407 3.202,0.006 c 2.477,0 4.362,-0.043 5.515,-0.253 l 0.389,-0.072 0.134,-0.374 c 0.373,-1.047 0.311,-2.186 0.252,-3.288 -0.107,-1.955 -0.094,-3.016 1.357,-3.427 1.281,0.159 3.089,0.116 4.9,0.038 0.913,-0.041 1.832,-0.081 2.726,-0.081 1.351,0 2.399,0.097 3.268,0.301 0.25,0.661 0.049,1.832 -0.131,2.877 -0.25,1.448 -0.484,2.818 0.221,3.655 0.346,0.411 0.853,0.618 1.509,0.618 l 7.376,-0.083 1.461,-0.792 0.335,-8.3 -0.265,-0.215 c -1.547,-1.26 -3.471,-2.828 -4.075,-7.875 -0.121,-1.722 0.4,-10.349 0.602,-12.851 h 0.059 l 0.091,-1.374 z"
             style="fill:#1a171b;fill-opacity:1;fill-rule:nonzero;stroke:none"
             id="path28" />
        </g>
      </g>
    </g>
    <g
       id="g30">
      <g
         id="g32">
        <g
           id="g38">
          <g
             id="g40">
            <path
               d="m 401.201,356.009 c -5.475,1.144 -0.968,-5.194 -3.458,-7.398 v 0 c -1.97,-0.544 -4.409,-0.439 -6.8,-0.334 v 0 c -1.809,0.08 -3.591,0.16 -5.123,-0.041 v 0 c -3.537,0.854 -1.343,4.802 -2.296,7.483 v 0 c -2.693,0.483 -5.383,0.091 -7.972,-0.193 v 0 c -1.153,-2.589 1.235,-5.764 -1.835,-7.29 v 0 c -4.125,-0.103 -8.644,-0.398 -12.39,-0.307 v 0 c -2.41,0.968 -1.26,3.847 -1.634,5.674 v 0 c -0.386,0.585 0.295,1.735 -0.856,1.831 v 0 c -0.808,-0.191 -1.703,-0.126 -2.584,-0.06 v 0 c -1.341,0.101 -2.651,0.201 -3.578,-0.606 v 0 c -0.095,-1.853 0.03,-2.944 0.032,-3.422 v 0 c 0.592,-0.526 -0.161,-1.606 0.159,-2.304 v 0 c 6.438,-4.888 14.214,-9.864 18.823,-16.589 v 0 c 0.769,-1.446 2.45,-3.594 3.61,-4.727 v 0 c 1.343,-2.697 7.647,-15.434 7.94,-18.598 v 0 c 0.957,-7.506 0.285,-15.767 -1.351,-22.875 v 0 c -0.287,-3.368 -1.73,-6.828 -2.313,-10.374 v 0 c -0.563,-2.594 -2.492,-4.619 -2.686,-7.402 v 0 c -0.774,0.291 -0.666,-0.769 -0.475,-1.246 v 0 h -0.478 c -3.557,-7.209 -8.472,-13.162 -14.607,-19.13 v 0 c -2.589,-1.242 -5.104,-2.085 -7.22,-3.804 v 0 c 0.648,0.148 8.558,0.094 18.237,0.038 v 0 c 10.213,-0.059 22.398,-0.118 30.103,0.065 v 0 c 0.677,0.273 1.539,0.435 1.821,1.396 v 0 c -0.577,25.27 -1.248,52.651 -1.625,78.314 v 0 c 0,4.604 -0.778,10.567 2.012,14.698 v 0 c 0.672,1.639 2.402,2.884 2.883,4.614 v 0 l -0.095,11.91 -0.964,0.967 z"
               style="fill:url(#linearGradient46);stroke:none"
               id="path48" />
          </g>
        </g>
      </g>
    </g>
    <g
       id="g50">
      <g
         id="g52"
         clip-path="url(#clipPath56)">
        <g
           id="g58"
           transform="translate(359.4189,245.0811)">
          <path
             d="m 0,0 c 2.928,0 6.845,-0.021 11.209,-0.047 5.49,-0.033 11.687,-0.07 17.516,-0.07 6.06,0 10.698,0.037 14.173,0.117 l 0.213,0.087 c 0.559,0.198 0.897,0.343 1.05,0.73 l -0.263,11.399 c -0.51,22.117 -1.04,44.992 -1.359,66.802 0,0.806 -0.024,1.638 -0.048,2.498 -0.118,4.223 -0.25,9.001 2.178,12.595 0.276,0.714 0.844,1.429 1.392,2.122 0.58,0.736 1.13,1.432 1.372,2.205 l -0.091,11.526 -0.548,0.55 -5.064,-0.276 -0.088,0.016 c -0.93,0.199 -1.577,0.156 -1.816,-0.11 -0.347,-0.387 -0.231,-1.448 -0.121,-2.471 0.177,-1.645 0.378,-3.504 -0.924,-4.658 l -0.274,-0.148 c -1.093,-0.3 -2.398,-0.443 -4.107,-0.443 -0.961,0 -1.95,0.043 -2.93,0.086 -1.853,0.078 -3.709,0.124 -4.98,-0.037 l -0.126,-0.016 -0.124,0.029 c -2.834,0.684 -2.704,3.1 -2.6,5.039 0.046,0.862 0.094,1.748 -0.075,2.503 -1.958,0.293 -4.378,0.07 -6.584,-0.179 l -0.351,-0.041 c -0.229,-0.771 -0.153,-1.625 -0.075,-2.519 0.152,-1.695 0.321,-3.621 -1.951,-4.749 l -0.29,-0.073 c -1.37,-0.035 -2.783,-0.088 -4.198,-0.145 -2.804,-0.11 -5.719,-0.215 -8.224,-0.161 l -0.24,0.048 c -2.14,0.859 -2.06,2.966 -2.004,4.502 0.024,0.578 0.043,1.126 -0.029,1.574 -0.174,0.352 -0.172,0.728 -0.169,1.037 0,0.129 0.003,0.325 -0.022,0.385 -0.486,-0.225 -1.638,-0.178 -2.656,-0.098 -1.168,0.098 -2.249,0.095 -2.845,-0.279 -0.046,-1.169 -0.002,-1.985 0.028,-2.541 0.005,-0.097 0.01,-0.183 0.013,-0.263 0.351,-0.519 0.234,-1.161 0.153,-1.609 -0.032,-0.178 -0.073,-0.403 -0.07,-0.551 1.098,-0.832 2.235,-1.668 3.387,-2.512 5.681,-4.171 11.555,-8.485 15.399,-14.096 0.805,-1.504 2.458,-3.583 3.524,-4.62 l 0.134,-0.188 c 2.316,-4.646 7.728,-15.783 8.01,-18.839 0.905,-7.113 0.422,-15.321 -1.367,-23.095 -0.151,-1.854 -0.696,-3.852 -1.225,-5.787 -0.408,-1.481 -0.827,-3.023 -1.077,-4.543 -0.274,-1.252 -0.812,-2.336 -1.329,-3.39 -0.645,-1.295 -1.252,-2.52 -1.352,-3.948 l -0.061,-0.919 -0.521,0.193 c 0.012,-0.075 0.034,-0.15 0.061,-0.221 L 18.01,21.462 H 16.94 C 13.694,14.999 9.189,9.144 2.389,2.525 L 2.208,2.402 C 1.534,2.08 0.868,1.784 0.213,1.488 -0.878,1.01 -1.934,0.543 -2.922,-0.01 -2.189,-0.005 -1.238,0 0,0 m 28.725,-1.493 c -5.832,0 -12.031,0.038 -17.524,0.07 C 6.842,-1.396 2.925,-1.374 0,-1.374 c -3.899,0 -4.961,-0.044 -5.165,-0.081 l -0.577,1.204 c 1.64,1.336 3.465,2.143 5.396,2.997 0.613,0.275 1.233,0.547 1.859,0.842 6.768,6.603 11.208,12.421 14.386,18.867 l 0.268,0.382 c -0.002,0.301 0.054,0.608 0.221,0.854 0.118,0.172 0.279,0.301 0.467,0.372 0.221,1.428 0.828,2.653 1.419,3.846 0.505,1.02 0.983,1.983 1.211,3.034 0.255,1.558 0.685,3.133 1.101,4.653 0.535,1.956 1.043,3.808 1.198,5.634 1.768,7.71 2.243,15.752 1.354,22.73 -0.182,1.977 -3.105,8.8 -7.822,18.275 -1.136,1.129 -2.823,3.251 -3.653,4.814 -3.672,5.351 -9.452,9.595 -15.038,13.697 -1.226,0.897 -2.432,1.783 -3.595,2.667 l -0.209,0.26 c -0.231,0.511 -0.132,1.056 -0.054,1.491 0.035,0.19 0.094,0.51 0.056,0.596 l -0.228,0.204 0.005,0.298 c 0,0.113 -0.008,0.264 -0.019,0.455 -0.032,0.596 -0.083,1.589 -0.013,3.005 l 0.016,0.293 0.22,0.19 c 0.868,0.755 1.964,0.844 2.717,0.844 0.437,0 0.894,-0.035 1.353,-0.07 0.87,-0.064 1.778,-0.104 2.386,0.043 l 0.107,0.027 0.108,-0.011 c 1.363,-0.113 1.353,-1.286 1.35,-1.727 -0.003,-0.132 -0.003,-0.354 0.027,-0.416 l 0.097,-0.236 c 0.125,-0.626 0.102,-1.325 0.075,-2.002 -0.062,-1.606 -0.043,-2.629 1.031,-3.123 2.447,-0.06 5.276,0.053 8.008,0.164 1.366,0.053 2.73,0.107 4.058,0.139 1.238,0.677 1.217,1.625 1.064,3.33 -0.097,1.11 -0.209,2.367 0.319,3.557 l 0.162,0.359 1.16,0.132 c 2.466,0.28 5.181,0.5 7.4,0.1 l 0.392,-0.07 0.134,-0.376 c 0.387,-1.085 0.323,-2.272 0.261,-3.42 -0.111,-2.056 -0.097,-3.175 1.434,-3.596 1.335,0.158 3.21,0.116 5.085,0.033 0.958,-0.044 1.928,-0.087 2.868,-0.087 1.491,0 2.633,0.113 3.573,0.349 0.652,0.715 0.507,2.066 0.365,3.374 -0.15,1.386 -0.293,2.697 0.465,3.541 0.596,0.661 1.571,0.849 3.03,0.555 l 5.498,0.304 1.38,-1.384 0.098,-12.288 -0.025,-0.094 c -0.301,-1.074 -0.983,-1.939 -1.646,-2.775 -0.511,-0.647 -0.994,-1.256 -1.263,-1.915 -2.249,-3.354 -2.122,-7.9 -2.009,-11.907 0.024,-0.875 0.048,-1.725 0.048,-2.53 0.32,-21.794 0.849,-44.663 1.359,-66.78 L 45.542,0.624 45.513,0.522 c -0.339,-1.15 -1.296,-1.5 -1.929,-1.73 L 43.046,-1.369 C 39.55,-1.449 34.865,-1.493 28.725,-1.493"
             style="fill:#1a171b;fill-opacity:1;fill-rule:nonzero;stroke:none"
             id="path60" />
        </g>
        <g
           id="g62"
           transform="translate(323.5073,234.0479)">
          <path
             d="M 0,0 C 36,0.005 63.882,28.563 62.243,63.744 60.624,98.953 30.113,127.484 -5.904,127.473 -41.908,127.462 -69.786,98.921 -68.15,63.712 -66.52,28.515 -36.02,-0.011 0,0"
             style="fill:#005091;fill-opacity:1;fill-rule:nonzero;stroke:none"
             id="path64" />
        </g>
        <g
           id="g66"
           transform="translate(395.0601,323.0513)">
          <path
             d="m 0,0 c 0.385,-1.058 0.667,-2.696 0.19,-3.653 0.086,-0.956 0.086,-1.923 -0.872,-2.304 -0.957,-0.097 -1.249,0.773 -1.539,1.439 -0.287,0.865 0.481,2.208 -0.967,2.401 -0.763,-0.386 -1.247,0.581 -1.434,1.059 0,1.15 0.671,2.498 1.925,2.697 C -1.356,1.923 -0.776,0.865 0,0"
             style="fill:#1a171b;fill-opacity:1;fill-rule:nonzero;stroke:none"
             id="path68" />
        </g>
        <g
           id="g70"
           transform="translate(391.7915,288.3584)">
          <path
             d="m 0,0 c 0.664,-2.004 0.856,-5.27 -0.591,-6.709 -2.297,0 -0.66,2.782 -1.909,4.023 -0.968,0.194 -1.739,1.058 -1.83,2.015 0.282,0.58 0.578,1.355 1.353,1.542 C -1.932,1.064 -0.591,1.161 0,0"
             style="fill:#1a171b;fill-opacity:1;fill-rule:nonzero;stroke:none"
             id="path72" />
        </g>
      </g>
    </g>
    <g
       id="g74">
      <g
         id="g76">
        <g
           id="g82">
          <g
             id="g84">
            <path
               d="m 320.158,390.723 c -0.39,-5.575 -1.351,-11.436 -1.832,-17.008 v 0 c -0.099,-1.73 -0.099,-3.562 -0.476,-5.006 v 0 -0.565 c -0.478,-2.213 -0.287,-4.716 1.623,-5.872 v 0 c 1.061,-0.569 2.127,-0.864 3.177,-0.284 v 0 c 1.066,0.49 1.636,1.73 1.822,2.783 v 0 c -1.152,9.514 -1.916,19.511 -3.745,28.735 v 0 z"
               style="fill:url(#linearGradient90);stroke:none"
               id="path92" />
          </g>
        </g>
      </g>
    </g>
    <g
       id="g94">
      <g
         id="g96"
         clip-path="url(#clipPath100)">
        <g
           id="g102"
           transform="translate(318.5381,368.6226)">
          <path
             d="M 0,0 V -0.479 C -0.266,-1.781 -0.639,-4.596 1.29,-5.762 2.334,-6.317 3.078,-6.414 3.779,-6.032 4.62,-5.646 5.071,-4.663 5.238,-3.83 4.923,-1.219 4.636,1.426 4.349,4.081 3.745,9.662 3.124,15.394 2.213,20.892 1.998,18.228 1.655,15.429 1.322,12.708 1.009,10.169 0.69,7.545 0.473,5.034 L 0.421,3.968 C 0.36,2.605 0.296,1.195 0,0 m 2.906,-7.636 c -0.7,0 -1.431,0.215 -2.297,0.679 -1.922,1.163 -2.629,3.57 -1.968,6.624 l -0.016,0.419 c 0,0.059 0.008,0.116 0.021,0.172 0.279,1.075 0.341,2.447 0.401,3.771 l 0.054,1.105 c 0.219,2.556 0.545,5.191 0.856,7.743 0.376,3.068 0.765,6.239 0.978,9.272 l 0.58,2.872 c 0.067,0.319 0.346,0.55 0.674,0.55 h 0.003 c 0.328,0 0.607,-0.234 0.671,-0.553 C 4.19,18.324 4.966,11.158 5.716,4.228 6.006,1.545 6.296,-1.13 6.616,-3.768 6.624,-3.835 6.621,-3.905 6.61,-3.97 6.508,-4.55 6.046,-6.502 4.4,-7.26 3.964,-7.501 3.447,-7.636 2.906,-7.636"
             style="fill:#1a171b;fill-opacity:1;fill-rule:nonzero;stroke:none"
             id="path104" />
        </g>
      </g>
    </g>
    <g
       id="g106">
      <g
         id="g108">
        <g
           id="g114">
          <g
             id="g116">
            <path
               d="m 289.451,359.726 1.164,-1.917 c 0.859,-0.967 2.294,-1.22 3.351,-0.929 v 0 c 1.609,0.478 1.443,2.718 0.865,3.513 v 0 c -3.253,5.378 -6.905,11.158 -10.66,16.342 v 0 c 1.253,-5.867 3.948,-11.249 5.28,-17.009"
               style="fill:url(#linearGradient122);stroke:none"
               id="path124" />
          </g>
        </g>
      </g>
    </g>
    <g
       id="g126">
      <g
         id="g128"
         clip-path="url(#clipPath132)">
        <g
           id="g134"
           transform="translate(290.0957,359.9902)">
          <path
             d="M 0,0 1.106,-1.824 C 1.601,-2.362 2.785,-2.695 3.688,-2.447 4.01,-2.351 4.232,-2.125 4.36,-1.762 4.575,-1.123 4.4,-0.307 4.179,0 1.013,5.229 -1.729,9.519 -4.292,13.236 -3.76,11.501 -3.151,9.793 -2.554,8.116 -1.617,5.49 -0.65,2.771 0,0 m 2.998,-3.911 c -1.185,0 -2.275,0.465 -2.993,1.273 l -1.238,2.017 c -0.038,0.062 -0.065,0.131 -0.08,0.202 -0.634,2.734 -1.602,5.449 -2.536,8.074 -1.026,2.879 -2.089,5.858 -2.748,8.944 -0.07,0.32 0.094,0.642 0.393,0.774 0.3,0.129 0.644,0.035 0.834,-0.226 C -2.149,12.702 1.25,7.494 5.324,0.759 5.751,0.174 6.036,-1.093 5.66,-2.203 5.394,-2.987 4.83,-3.543 4.066,-3.769 3.72,-3.866 3.363,-3.911 2.998,-3.911"
             style="fill:#1a171b;fill-opacity:1;fill-rule:nonzero;stroke:none"
             id="path136" />
        </g>
      </g>
    </g>
    <g
       id="g138">
      <g
         id="g140">
        <g
           id="g146">
          <g
             id="g148">
            <path
               d="m 245.443,363.89 c 6.634,-7.494 20.014,-21.826 21.34,-22.488 v 0 c 0.764,-0.386 2.294,-0.671 3.264,0.102 v 0 c 1.344,0.57 2.299,1.607 1.344,3.562 v 0 c -0.377,0.478 -1.282,1.403 -2.314,2.294 v 0 c -7.179,5.463 -23.108,16.531 -23.628,16.53 v 0 c -0.002,0 -0.004,0 -0.006,0"
               style="fill:url(#linearGradient154);stroke:none"
               id="path156" />
          </g>
        </g>
      </g>
    </g>
    <g
       id="g158">
      <g
         id="g160"
         clip-path="url(#clipPath164)">
        <g
           id="g166"
           transform="translate(249.333,360.5835)">
          <path
             d="m 0,0 c 7.257,-8.015 16.69,-17.975 17.763,-18.569 0.284,-0.142 0.816,-0.311 1.38,-0.311 0.328,0 0.793,0.059 1.142,0.339 0.05,0.04 0.105,0.072 0.161,0.096 0.666,0.282 1.082,0.634 1.235,1.045 0.153,0.408 0.073,0.94 -0.242,1.582 -0.26,0.306 -1.133,1.201 -2.143,2.074 C 14.302,-9.946 5.275,-3.588 0,0 m 19.143,-20.255 c -0.685,0 -1.435,0.172 -2.004,0.462 -1.609,0.8 -16.102,16.497 -21.544,22.643 -0.162,0.183 -0.213,0.435 -0.14,0.666 0.075,0.231 0.263,0.406 0.5,0.459 h 0.002 c 0.1,0 0.314,-0.086 0.626,-0.249 l 0.043,0.038 c 0.032,-0.041 0.067,-0.078 0.103,-0.119 3.784,-2.065 19.352,-13.218 23.432,-16.32 0.999,-0.863 1.988,-1.846 2.436,-2.418 0.564,-1.115 0.664,-2.011 0.373,-2.788 -0.284,-0.758 -0.923,-1.362 -1.904,-1.794 -0.516,-0.382 -1.176,-0.58 -1.923,-0.58"
             style="fill:#1a171b;fill-opacity:1;fill-rule:nonzero;stroke:none"
             id="path168" />
        </g>
      </g>
    </g>
    <g
       id="g170">
      <g
         id="g172">
        <g
           id="g178">
          <g
             id="g180">
            <path
               d="m 238.122,326.624 c 5.745,-2.927 10.861,-6.258 16.319,-8.643 v 0 c 0.675,-0.479 1.548,-0.296 2.219,0 v 0 c 0.864,0.478 1.923,1.337 1.117,2.944 v 0 c -0.636,1.283 -3.352,1.761 -5.345,2.331 v 0 c -5.095,1.16 -9.9,2.788 -14.983,4.04 v 0 z"
               style="fill:url(#linearGradient186);stroke:none"
               id="path188" />
          </g>
        </g>
      </g>
    </g>
    <g
       id="g190">
      <g
         id="g192"
         clip-path="url(#clipPath196)">
        <g
           id="g198"
           transform="translate(241.9063,325.394)">
          <path
             d="m 0,0 c 1.085,-0.597 2.149,-1.198 3.196,-1.784 3.274,-1.842 6.368,-3.583 9.616,-5.001 0.615,-0.408 1.021,-0.285 1.665,0 1.149,0.639 1.149,1.267 0.779,2.009 -0.389,0.784 -2.294,1.284 -3.825,1.682 -0.378,0.096 -0.746,0.193 -1.094,0.295 C 7.566,-2.17 4.807,-1.376 2.138,-0.613 1.431,-0.409 0.719,-0.205 0,0 m 13.513,-8.396 c -0.518,0 -0.983,0.145 -1.376,0.423 -3.188,1.376 -6.309,3.133 -9.613,4.986 -2.132,1.203 -4.34,2.439 -6.621,3.605 -0.064,0.032 -0.123,0.074 -0.174,0.123 l -0.672,0.672 c -0.217,0.22 -0.263,0.559 -0.112,0.827 0.153,0.268 0.472,0.413 0.762,0.327 2.313,-0.568 4.601,-1.224 6.812,-1.859 2.648,-0.756 5.391,-1.546 8.161,-2.175 0.373,-0.107 0.732,-0.199 1.098,-0.295 1.988,-0.521 4.042,-1.059 4.708,-2.402 0.452,-0.897 0.87,-2.594 -1.399,-3.852 -0.588,-0.262 -1.099,-0.38 -1.574,-0.38"
             style="fill:#1a171b;fill-opacity:1;fill-rule:nonzero;stroke:none"
             id="path200" />
        </g>
      </g>
    </g>
    <g
       id="g202">
      <g
         id="g204">
        <g
           id="g210">
          <g
             id="g212">
            <path
               d="m 236.122,296.659 c -4.257,-0.586 -7.579,-1.246 -11.823,-1.924 v 0 c 4.333,-0.672 14.907,-1.607 15.87,-1.729 v 0 c 4.643,-0.345 8.361,-1.059 12.588,-0.758 v 0 c 0.965,0.183 1.821,0.864 2.106,1.815 v 0 c 0.574,1.059 -0.091,2.118 -0.375,2.993 v 0 l -1.731,1.139 c -0.509,0.018 -1.015,0.026 -1.519,0.026 v 0 c -5.024,0 -9.842,-0.83 -15.116,-1.562"
               style="fill:url(#linearGradient218);stroke:none"
               id="path220" />
          </g>
        </g>
      </g>
    </g>
    <g
       id="g222">
      <g
         id="g224"
         clip-path="url(#clipPath228)">
        <g
           id="g230"
           transform="translate(229.0181,294.832)">
          <path
             d="m 0,0 c 3.07,-0.344 6.563,-0.683 8.824,-0.902 1.268,-0.123 2.162,-0.209 2.414,-0.242 1.384,-0.101 2.719,-0.242 4.008,-0.376 2.887,-0.301 5.557,-0.576 8.445,-0.376 0.677,0.128 1.294,0.656 1.496,1.327 0.338,0.655 0.156,1.209 -0.153,1.998 -0.049,0.119 -0.094,0.237 -0.137,0.349 L 23.525,2.681 C 18.861,2.858 14.432,2.182 9.692,1.499 L 7.199,1.145 C 4.594,0.784 2.356,0.402 0,0 m 21.655,-3.341 c -2.203,0 -4.314,0.22 -6.554,0.451 -1.276,0.134 -2.595,0.274 -4.002,0.375 -0.282,0.038 -1.163,0.124 -2.41,0.243 -3.591,0.348 -10.279,0.994 -13.513,1.499 -0.336,0.048 -0.583,0.338 -0.583,0.675 0,0.339 0.244,0.625 0.58,0.679 1.593,0.257 3.057,0.511 4.489,0.757 2.409,0.413 4.681,0.806 7.349,1.171 l 2.484,0.355 c 4.867,0.698 9.414,1.332 14.269,1.187 0.125,-0.006 0.247,-0.044 0.354,-0.113 l 1.73,-1.139 c 0.129,-0.086 0.228,-0.215 0.274,-0.36 0.053,-0.167 0.121,-0.333 0.191,-0.505 0.316,-0.8 0.749,-1.902 0.136,-3.029 -0.293,-1.027 -1.326,-1.929 -2.581,-2.166 -0.803,-0.058 -1.512,-0.08 -2.213,-0.08"
             style="fill:#1a171b;fill-opacity:1;fill-rule:nonzero;stroke:none"
             id="path232" />
        </g>
      </g>
    </g>
    <g
       id="g234">
      <g
         id="g236">
        <g
           id="g242">
          <g
             id="g244">
            <path
               d="m 258.616,274.548 c -5.48,-3.364 -17.336,-13.436 -17.336,-13.436 v 0 c 5.769,2.115 12.911,5.742 18.496,8.337 v 0 c 1.147,0.575 1.91,1.735 1.716,3.084 v 0 c -0.459,1.099 -1.351,2.021 -2.688,2.021 v 0 c -0.062,0 -0.124,-0.002 -0.188,-0.006"
               style="fill:url(#linearGradient250);stroke:none"
               id="path252" />
          </g>
        </g>
      </g>
    </g>
    <g
       id="g254">
      <g
         id="g256"
         clip-path="url(#clipPath260)">
        <g
           id="g262"
           transform="translate(258.8198,273.8643)">
          <path
             d="m 0,0 c -3.61,-2.25 -9.912,-7.321 -13.771,-10.502 3.282,1.402 6.771,3.068 9.965,4.594 1.557,0.741 3.065,1.461 4.472,2.117 0.723,0.365 1.456,1.153 1.338,2.277 C 1.735,-0.918 1.142,-0.005 0,0 m -17.54,-13.439 c -0.239,0 -0.467,0.123 -0.594,0.343 -0.169,0.284 -0.104,0.65 0.149,0.871 0.485,0.408 11.96,10.141 17.421,13.494 0.096,0.059 0.204,0.091 0.316,0.102 l 0.231,0.005 c 1.464,0 2.673,-0.892 3.324,-2.444 0.024,-0.054 0.037,-0.108 0.045,-0.166 0.226,-1.559 -0.597,-3.047 -2.087,-3.793 -1.423,-0.661 -2.925,-1.381 -4.48,-2.122 -4.567,-2.181 -9.74,-4.653 -14.089,-6.247 -0.077,-0.028 -0.158,-0.043 -0.236,-0.043"
             style="fill:#1a171b;fill-opacity:1;fill-rule:nonzero;stroke:none"
             id="path264" />
        </g>
      </g>
    </g>
    <g
       id="g266">
      <g
         id="g268">
        <g
           id="g274">
          <g
             id="g276">
            <path
               d="m 272.763,252.446 -17.961,-24.588 c 7.493,5.373 14.033,12.48 21.326,18.533 v 0 c 1.16,1.162 2.026,2.795 1.447,4.524 v 0 c -0.529,1.31 -1.773,1.904 -3.059,1.904 v 0 c -0.598,0 -1.204,-0.129 -1.753,-0.373"
               style="fill:url(#linearGradient282);stroke:none"
               id="path284" />
          </g>
        </g>
      </g>
    </g>
    <g
       id="g286">
      <g
         id="g288"
         clip-path="url(#clipPath292)">
        <g
           id="g294"
           transform="translate(273.2031,251.8877)">
          <path
             d="m 0,0 -15.015,-20.559 c 3.084,2.52 6.057,5.277 8.964,7.967 2.753,2.552 5.602,5.189 8.535,7.624 0.67,0.677 1.789,2.122 1.236,3.776 C 3.196,0.098 1.861,0.242 1.314,0.242 0.868,0.242 0.417,0.157 0,0 m -18.402,-24.717 c -0.177,0 -0.354,0.071 -0.489,0.205 -0.236,0.241 -0.265,0.617 -0.067,0.887 L -0.997,0.968 c 0.073,0.095 0.167,0.171 0.277,0.22 0.634,0.279 1.338,0.429 2.034,0.429 1.724,0 3.104,-0.87 3.695,-2.33 0.592,-1.763 0.004,-3.67 -1.597,-5.27 -2.955,-2.456 -5.789,-5.078 -8.531,-7.619 -4.107,-3.802 -8.354,-7.741 -12.882,-10.985 -0.121,-0.086 -0.261,-0.13 -0.401,-0.13"
             style="fill:#1a171b;fill-opacity:1;fill-rule:nonzero;stroke:none"
             id="path296" />
        </g>
      </g>
    </g>
    <g
       id="g298">
      <g
         id="g300">
        <g
           id="g306">
          <g
             id="g308">
            <path
               d="m 295.739,236.519 c -1.147,-5.958 -2.605,-12.58 -3.183,-18.544 v 0 l 7.883,16.713 0.097,2.309 c -0.483,1.547 -1.918,1.638 -3.261,1.638 v 0 c -0.865,-0.387 -1.353,-1.354 -1.536,-2.116"
               style="fill:url(#linearGradient314);stroke:none"
               id="path316" />
          </g>
        </g>
      </g>
    </g>
    <g
       id="g318">
      <g
         id="g320"
         clip-path="url(#clipPath324)">
        <g
           id="g326"
           transform="translate(297.4365,237.9473)">
          <path
             d="m 0,0 c -0.553,-0.322 -0.896,-1.041 -1.029,-1.59 -0.215,-1.123 -0.448,-2.3 -0.684,-3.486 -0.704,-3.552 -1.427,-7.188 -1.951,-10.706 l 5.985,12.688 0.086,2.047 C 2.089,-0.193 1.359,-0.011 0,0 m -4.88,-20.661 c -0.062,0 -0.121,0.006 -0.183,0.026 -0.323,0.088 -0.535,0.394 -0.503,0.727 0.471,4.845 1.504,10.056 2.504,15.095 0.236,1.194 0.467,2.364 0.69,3.513 0.113,0.484 0.572,2.01 1.929,2.616 0.089,0.038 0.185,0.06 0.282,0.06 1.136,0 3.255,0 3.916,-2.122 0.024,-0.075 0.035,-0.155 0.033,-0.231 L 3.691,-3.287 C 3.685,-3.378 3.664,-3.469 3.626,-3.555 l -7.883,-16.714 c -0.118,-0.241 -0.363,-0.392 -0.623,-0.392"
             style="fill:#1a171b;fill-opacity:1;fill-rule:nonzero;stroke:none"
             id="path328" />
        </g>
      </g>
    </g>
    <g
       id="g330">
      <g
         id="g332">
        <g
           id="g338">
          <g
             id="g340">
            <path
               d="m 322.602,233.718 c -1.536,-0.09 -2.506,-1.146 -3.072,-2.486 v 0 c 0.295,-4.221 1.156,-7.978 1.434,-12.108 v 0 c 0.879,-5.185 2.635,-16.793 2.635,-16.793 v 0 c 0,0 1.504,13.619 1.992,20.075 v 0 c -0.193,3.444 1.628,7.285 -0.193,10.267 v 0 c -0.709,0.445 -1.683,1.056 -2.591,1.056 v 0 c -0.069,0 -0.137,-0.003 -0.205,-0.011"
               style="fill:url(#linearGradient346);stroke:none"
               id="path348" />
          </g>
        </g>
      </g>
    </g>
    <g
       id="g350">
      <g
         id="g352"
         clip-path="url(#clipPath356)">
        <g
           id="g358"
           transform="translate(320.228,231.1143)">
          <path
             d="m 0,0 c 0.147,-2.02 0.43,-3.964 0.703,-5.845 0.285,-1.967 0.578,-3.997 0.717,-6.097 0.487,-2.847 1.252,-7.751 1.832,-11.518 0.481,4.546 1.137,10.97 1.427,14.807 -0.076,1.207 0.121,2.54 0.311,3.835 0.317,2.159 0.618,4.206 -0.328,5.882 C 4.037,1.457 3.233,1.929 2.576,1.929 1.372,1.858 0.553,1.209 0,0 m 3.371,-29.472 c -0.339,0 -0.629,0.248 -0.68,0.586 -0.019,0.114 -1.767,11.663 -2.633,16.783 -0.144,2.116 -0.437,4.121 -0.717,6.059 -0.284,1.961 -0.577,3.987 -0.724,6.114 -0.009,0.107 0.01,0.215 0.05,0.317 0.765,1.805 2.034,2.809 3.666,2.907 0.06,0.005 0.151,0.011 0.243,0.011 C 3.68,3.305 4.749,2.633 5.53,2.144 5.621,2.09 5.701,2.009 5.756,1.918 7.056,-0.209 6.699,-2.653 6.349,-5.018 6.169,-6.242 5.984,-7.511 6.051,-8.671 5.565,-15.154 4.069,-28.724 4.053,-28.858 4.015,-29.202 3.73,-29.466 3.384,-29.472 Z"
             style="fill:#1a171b;fill-opacity:1;fill-rule:nonzero;stroke:none"
             id="path360" />
        </g>
      </g>
    </g>
    <g
       id="g362">
      <g
         id="g364">
        <g
           id="g370">
          <g
             id="g372">
            <path
               d="m 317.091,359.463 c -15.862,-0.182 -30.661,-6.344 -41.551,-16.1 v 0 c -12.583,-11.276 -19.063,-29.696 -17.596,-44.465 v 0 c 0.201,-2.127 2.845,26.598 22.17,44.079 v 0 c 14.228,12.871 39.348,14.788 57.933,13.601 v 0 c 1.865,-0.119 1.295,0.661 -2.106,1.441 v 0 c -3.169,0.726 -8.798,1.453 -17.208,1.453 v 0 c -0.536,0 -1.084,-0.003 -1.642,-0.009 m 7.931,-10.706 c 0,-1.134 0.914,-2.047 2.042,-2.047 v 0 c 1.119,0 2.035,0.913 2.035,2.047 v 0 c 0,1.128 -0.916,2.031 -2.035,2.031 v 0 c -1.128,0 -2.042,-0.903 -2.042,-2.031 m 11.4,-1.811 c -3.58,-2.422 -1.099,-6.908 -0.395,-10.234 v 0 c 2.366,-6.258 6.82,-10.813 11.767,-14.627 v 0 c 3.142,-3.476 12.417,-6.865 16.026,-5.464 v 0 c 3.198,0.805 5.94,2.461 6.765,5.05 v 0 c -0.134,0.479 0.032,1.188 0.065,1.521 v 0 c -0.432,1.418 -1.008,3.093 -2.364,4.012 v 0 l -1.537,-3.664 c -1.369,-1.504 -3.631,-2.164 -5.563,-2.443 v 0 c -6.653,-0.404 -13.778,3.072 -17.462,7.966 v 0 c -3.405,4.539 -6.612,10.094 -4.828,15.509 v 0 c 0.448,2.208 4.165,4.207 4.165,4.207 v 0 c -0.516,0.131 -1.035,0.191 -1.548,0.191 v 0 c -1.948,0 -3.812,-0.867 -5.091,-2.024 m -24.675,0.129 2.501,-3.078 c 0.664,-1.923 0.183,-4.234 -0.488,-6.053 v 0 c -2.786,-6.056 -9.227,-10.691 -15.276,-11.626 v 0 c -5.603,-0.865 -12.001,-1.058 -15.936,3.083 v 0 c -1.738,1.434 -1.738,5.663 -1.738,5.663 v 0 c -1.73,-1.891 -2.047,-4.615 -1.55,-6.722 v 0 c 0.456,-4.302 5.584,-4.232 8.859,-5.193 v 0 c 6.624,-0.86 12.735,0.891 18.439,3.454 v 0 c 4.548,1.133 11.911,7.687 12.401,11.533 v 0 c 0.793,3.208 0.64,6.404 -1.259,8.359 v 0 c -0.481,0.102 -1.022,0.58 -1.319,0.774 v 0 c -0.752,0.148 -1.587,0.297 -2.418,0.297 v 0 c -0.764,0 -1.525,-0.125 -2.216,-0.491 m -6.57,-1.579 c 1.06,-1.531 1.768,-3.035 1.768,-4.958 v 0 c 0,-3.519 -2.5,-4.862 -4.322,-5.76 v 0 c -0.821,-0.403 -6.417,-1.739 -8.657,-1.127 v 0 c -3.964,1.096 -4.472,2.723 -6.137,5.065 v 0 l -1.072,1.027 c -0.588,-1.339 -1.822,-4.201 -0.763,-5.356 v 0 c 3.071,-2.977 4.362,-3.911 12.13,-3.461 v 0 c 2.963,0.206 7.053,2.085 9.778,4.331 v 0 c 2.205,2.106 2.787,4.609 2.981,7.392 v 0 c -0.194,1.165 -1.351,2.03 -2.119,2.412 v 0 l 0.107,0.08 c -1.165,0.876 -2.801,0.973 -4.234,1.161 v 0 z m 39.759,-1.606 c -1.193,-4.127 -1.394,-5.684 2.684,-12.335 v 0 c 1.566,-2.502 5.167,-5.226 8.428,-6.559 v 0 c 2.914,-0.946 5.375,-0.273 7.925,0.871 v 0 c 0.927,0.714 1.152,2.149 1.13,3.003 v 0 l 0.123,-0.038 c 0.215,1.423 -0.464,2.906 -0.985,4.271 v 0 l -0.449,-0.865 c -0.856,-1.66 -1.84,-2.982 -3.54,-3.9 v 0 c -3.11,-1.666 -5.471,-0.103 -7.129,1.08 v 0 c -0.731,0.531 -4.558,4.835 -5.069,7.091 v 0 c -0.923,4.018 0.277,5.237 1.551,7.811 v 0 l 0.394,1.423 c -1.452,-0.102 -4.552,-0.376 -5.063,-1.853 m -49.159,-2.546 c 0,-1.129 0.905,-2.037 2.036,-2.037 v 0 c 1.128,0 2.033,0.908 2.033,2.037 v 0 c 0,1.122 -0.905,2.03 -2.033,2.03 v 0 c -1.131,0 -2.036,-0.908 -2.036,-2.03 m 58.767,-3.847 c 0,-1.134 0.916,-2.036 2.033,-2.036 v 0 c 1.129,0 2.05,0.902 2.05,2.036 v 0 c -0.002,1.128 -0.921,2.031 -2.05,2.031 v 0 c -1.117,0 -2.033,-0.903 -2.033,-2.031 m -33.798,-3.685 c 0,-1.118 0.913,-2.031 2.044,-2.031 v 0 c 1.129,0 2.046,0.913 2.046,2.031 v 0 c 0,1.128 -0.917,2.036 -2.046,2.036 v 0 c -1.131,0 -2.044,-0.908 -2.044,-2.036 m 7.851,-0.639 c 0,-1.128 0.918,-2.041 2.047,-2.041 v 0 c 1.118,0 2.036,0.913 2.036,2.041 v 0 c 0,1.128 -0.918,2.036 -2.036,2.036 v 0 c -1.129,0 -2.047,-0.908 -2.047,-2.036 m -18.786,-9.734 -0.177,0.193 c -8.171,-1.833 -12.777,-7.596 -18.929,-13.07 v 0 c -2.779,-5.287 -6.722,-10.282 -7.496,-16.33 v 0 c -2.31,-6.544 -1.434,-14.415 1.354,-20.367 v 0 c 3.067,-7.403 10.66,-13.264 16.618,-18.163 v 0 c 7.099,-3.369 14.991,-5.764 23.454,-5.484 v 0 c 9.214,-0.865 16.802,3.749 23.82,8.938 v 0 c 5.759,4.906 9.403,11.625 10.757,18.362 v 0 c 1.153,3.448 0.481,7.291 0.675,11.33 v 0 c 0.668,1.252 0,3.174 0.58,4.325 v 0 c -0.397,1.341 0.376,2.965 -0.679,4.125 v 0 c -0.197,6.151 -3.069,11.83 -7.208,16.438 v 0 c -2.876,3.842 -8.073,5.474 -12.108,8.166 v 0 c -0.097,0.064 -0.298,0.042 -0.518,0.022 v 0 c -0.439,-0.044 -0.949,-0.087 -0.825,0.559 v 0 c -2.596,0.568 -4.792,2.39 -7.405,2.777 v 0 c -1.631,0.102 -3.449,0.102 -4.794,0.489 v 0 c -5.674,-0.968 -11.624,-0.387 -17.119,-2.31 m 20.763,-1.343 c 10.58,-1.639 20.089,-9.612 25.378,-18.835 v 0 l 2.106,-4.814 c 1.829,-6.049 0.096,-13.537 -1.153,-19.779 v 0 c 0,-7.022 -7.381,-11.046 -10.669,-16.632 v 0 c -5.664,-7.778 -15.662,-10.272 -24.397,-9.406 v 0 c -8.558,2.207 -18.643,2.696 -24.878,9.991 v 0 c -4.526,4.797 -9.524,10.277 -10.773,17.094 v 0 c 0,4.899 -1.443,9.804 -0.092,14.322 v 0 c 1.638,10.669 10.363,18.834 18.636,24.888 v 0 c 1.633,0.189 2.974,1.532 4.526,1.344 v 0 c 6.618,1.338 14.115,2.782 21.316,1.827 m -60.967,-1.537 c 0,-1.118 0.913,-2.031 2.035,-2.031 v 0 c 1.129,0 2.034,0.913 2.034,2.031 v 0 c 0,1.133 -0.905,2.036 -2.034,2.036 v 0 c -1.122,0 -2.035,-0.903 -2.035,-2.036 m 11.437,-2.439 c 0,-1.117 0.904,-2.035 2.042,-2.035 v 0 c 1.122,0 2.036,0.918 2.036,2.035 v 0 c 0,1.118 -0.914,2.036 -2.036,2.036 v 0 c -1.138,0 -2.042,-0.918 -2.042,-2.036 m 92.785,-1.639 c -1.017,-0.494 -1.423,-1.719 -0.916,-2.734 v 0 c 0.501,-0.999 1.725,-1.418 2.727,-0.919 v 0 c 1.005,0.511 1.427,1.741 0.916,2.735 v 0 c -0.353,0.717 -1.074,1.134 -1.822,1.134 v 0 c -0.304,0 -0.614,-0.069 -0.905,-0.216 m -44.506,-6.215 c -1.242,-3.067 -4.688,-4.899 -4.508,-8.541 v 0 c 0.377,-0.58 0.776,-0.866 1.347,-1.058 v 0 c 3.26,-1.542 1.531,2.889 3.931,3.265 v 0 l 8.944,0.092 c 2.305,-0.376 3.162,-3.165 5.174,-4.416 v 0 c 0.672,-0.683 1.741,-0.193 2.313,0.478 v 0 c -0.48,1.832 -1.721,3.266 -2.692,4.62 v 0 c -0.859,3.443 -4.703,5.663 -5.568,9.224 v 0 l -1.252,2.106 c -3.36,-0.091 -5.178,-3.744 -7.689,-5.77 m 2.511,-4.502 c -0.296,0.479 -0.387,1.435 0.078,1.816 v 0 c 0.674,1.349 2.129,2.311 3.37,2.885 v 0 c 1.83,0.381 2.606,-1.633 2.982,-2.885 v 0 c 0.384,-0.473 0.282,-1.252 0.194,-1.82 v 0 c -1.103,-0.629 -2.23,-0.943 -3.345,-0.943 v 0 c -1.116,0 -2.221,0.315 -3.279,0.947 m 29.331,8.945 c -0.994,-0.494 -1.402,-1.714 -0.913,-2.724 v 0 c 0.513,-1.01 1.73,-1.423 2.748,-0.923 v 0 c 0.994,0.51 1.421,1.729 0.905,2.734 v 0 c -0.347,0.716 -1.073,1.127 -1.825,1.127 v 0 c -0.309,0 -0.621,-0.069 -0.915,-0.214 m -49.041,-6.071 c -2.686,1.253 -4.121,3.846 -6.801,4.701 v 0 c -0.686,-0.081 -1.934,-0.081 -2.224,-1.15 v 0 c -0.671,-2.492 -0.771,-4.802 -1.819,-7.391 v 0 c -0.486,-1.73 -2.011,-3.073 -1.931,-5.19 v 0 c 0.482,-0.866 1.058,-1.445 2.219,-1.343 v 0 c 0.376,0.386 0.76,0.86 0.953,1.343 v 0 c 0,3.368 0.578,6.828 2.89,9.417 v 0 c 2.205,0.479 3.648,-1.638 5.083,-3.17 v 0 c 0.958,-0.864 0.582,-3.083 2.401,-2.879 v 0 c 1.923,1.149 1.923,3.352 3.653,4.712 v 0 c 1.921,0.085 2.218,-2.504 2.89,-4.04 v 0 c 0.193,-1.059 0.771,-2.208 1.818,-2.503 v 0 c 0.476,0.102 0.771,0.477 0.865,0.966 v 0 c -0.953,3.653 -2.208,7.301 -3.162,11.045 v 0 l -1.071,1.15 c -3.352,-0.376 -2.504,-4.802 -5.764,-5.668 m -36.36,2.434 c 0,-1.117 0.915,-2.036 2.022,-2.036 v 0 c 1.142,0 2.057,0.919 2.057,2.036 v 0 c 0,1.117 -0.915,2.031 -2.057,2.031 v 0 c -1.107,0 -2.022,-0.914 -2.022,-2.031 m -11.604,1.364 c -0.199,-0.397 -0.736,-0.762 -0.97,-0.978 v 0 c -0.592,-1.192 -1.236,-2.653 -0.905,-4.087 v 0 l 3.252,1.472 c 1.848,0.144 3.747,-0.812 5.182,-1.817 v 0 c 4.63,-3.824 7.209,-10.513 6.623,-16.014 v 0 c -0.55,-5.092 -1.848,-10.717 -6.36,-13.198 v 0 c -1.657,-1.182 -5.348,-0.216 -5.348,-0.216 v 0 c 1.257,-1.939 3.561,-2.846 5.522,-2.878 v 0 c 3.847,-0.598 4.972,3.879 6.562,6.51 v 0 c 2.286,5.587 2.152,11.329 1.228,16.896 v 0 c 0.073,4.216 -3.967,12.172 -7.202,13.473 v 0 c -1.648,0.901 -3.386,1.471 -4.98,1.471 v 0 c -0.933,0 -1.816,-0.195 -2.604,-0.634 m 100.701,-5.876 c -1.004,-0.511 -1.426,-1.741 -0.915,-2.751 v 0 c 0.496,-1 1.729,-1.403 2.731,-0.908 v 0 c 0.999,0.5 1.418,1.719 0.905,2.729 v 0 c -0.355,0.718 -1.08,1.137 -1.831,1.137 v 0 c -0.3,0 -0.604,-0.067 -0.89,-0.207 m -101.497,-2.262 -0.07,0.113 c -1.018,-0.817 -1.476,-2.219 -1.976,-3.429 v 0 l 0.813,0.297 c 1.588,0.569 3.076,0.832 4.751,0.397 v 0 c 3.074,-0.817 3.662,-3.304 4.038,-5.109 v 0 c 0.153,-0.799 0.021,-6 -1.018,-7.8 v 0 c -1.859,-3.212 -3.406,-3.288 -5.834,-4.201 v 0 l -1.141,-0.693 c 1.026,-0.826 3.245,-2.552 4.494,-1.891 v 0 c 3.316,1.992 4.418,2.902 5.806,9.788 v 0 c 0.519,2.622 -0.193,6.63 -1.512,9.515 v 0 c -1.345,2.427 -3.39,3.502 -5.764,4.307 v 0 c -0.062,0.006 -0.123,0.009 -0.184,0.009 v 0 c -0.993,0 -1.924,-0.757 -2.403,-1.303 m 102.615,-6.877 c -2.348,-4.781 -2.582,-9.824 -2.106,-14.756 v 0 c -0.322,-3.718 2.734,-10.928 5.504,-12.27 v 0 c 2.194,-1.424 4.647,-2.117 6.599,-1.198 v 0 c 0.193,0.332 0.706,0.618 0.913,0.784 v 0 c 0.593,1.015 1.252,2.267 1.037,3.545 v 0 l -2.936,-1.084 c -1.624,-0.021 -3.233,0.934 -4.434,1.901 v 0 c -3.833,3.643 -5.686,9.67 -4.841,14.461 v 0 c 0.793,4.438 2.267,9.3 6.385,11.202 v 0 c 1.523,0.934 4.701,-0.146 4.701,-0.146 v 0 c -0.975,1.795 -2.939,2.718 -4.669,2.879 v 0 c -0.289,0.066 -0.563,0.096 -0.823,0.096 v 0 c -2.737,0 -3.91,-3.397 -5.33,-5.414 m 8.998,-1.294 c -3.038,-1.542 -4.046,-2.279 -5.705,-8.235 v 0 c -0.608,-2.267 -0.245,-5.84 0.754,-8.451 v 0 c 1.026,-2.197 2.756,-3.277 4.801,-4.13 v 0 c 0.913,-0.157 1.872,0.488 2.349,0.971 v 0 l 0.052,-0.085 c 0.937,0.638 1.426,1.836 1.944,2.874 v 0 l -0.744,-0.199 c -1.426,-0.403 -2.747,-0.553 -4.182,-0.065 v 0 c -2.656,0.903 -3.032,3.122 -3.232,4.727 v 0 c -0.083,0.715 0.335,5.27 1.365,6.785 v 0 c 1.837,2.718 3.2,2.676 5.378,3.337 v 0 l 1.04,0.532 c -0.748,0.693 -2.237,2.031 -3.356,2.031 v 0 c -0.164,0 -0.32,-0.028 -0.464,-0.092 m -66.495,-2.67 c -1.443,-0.763 -2.784,-0.284 -3.949,0.58 v 0 c -1.048,0 -1.818,-0.091 -2.589,-0.956 v 0 c -3.653,-0.58 -7.201,-1.638 -10.567,0.473 v 0 c -0.583,-0.097 -0.672,-0.667 -0.672,-1.156 v 0 c -1.444,-1.628 -0.671,-3.652 -0.671,-5.577 v 0 c 0.384,-0.665 0.862,-1.432 1.921,-1.233 v 0 c 2.493,2.304 6.146,0.665 8.839,2.304 v 0 l 4.234,-1.247 c 0.554,-0.113 1.068,-0.054 1.555,0.006 v 0 c 0.771,0.094 1.477,0.188 2.181,-0.398 v 0 c 0.782,-2.039 2.199,-1.533 3.715,-1.026 v 0 c 0.912,0.305 1.86,0.61 2.729,0.361 v 0 c 0.964,-0.29 1.058,-1.259 1.74,-1.839 v 0 c 2.195,-0.762 4.599,0.195 6.812,0.489 v 0 c 2.206,1.151 3.548,-1.058 5.186,-1.922 v 0 c 2.888,0.864 5.859,2.493 9.133,1.536 v 0 c 1.434,-0.581 2.584,-2.117 2.877,-3.46 v 0 c 3.927,0.383 7.692,1.149 10.765,3.647 v 0 c 0.859,1.93 2.692,3.456 2.589,5.571 v 0 c -3.261,0.774 -5.855,3.847 -9.22,4.808 v 0 c -0.675,-0.194 -0.97,-1.144 -1.147,-1.826 v 0 c -0.777,-1.537 -1.929,-1.251 -3.371,-1.342 v 0 l -8.26,3.168 c -1.738,0.096 -1.249,-2.116 -2.692,-2.588 v 0 c -1.058,-0.489 -2.492,-0.58 -3.55,0.096 v 0 c -2.222,0.183 -4.043,2.02 -6.35,2.686 v 0 c -0.761,-0.194 -0.761,-1.058 -1.341,-1.531 v 0 c -2.503,-2.117 -4.518,0.763 -6.336,2.204 v 0 c -0.312,0.251 -0.6,0.355 -0.87,0.355 v 0 c -1.07,0 -1.853,-1.638 -2.691,-2.183 m -48.035,0.221 c -0.663,-0.914 -0.448,-2.182 0.476,-2.849 v 0 c 0.902,-0.638 2.187,-0.434 2.839,0.479 v 0 c 0.661,0.924 0.438,2.198 -0.481,2.848 v 0 c -0.356,0.256 -0.767,0.38 -1.176,0.38 v 0 c -0.633,0 -1.258,-0.297 -1.658,-0.858 m 117.229,-6.023 c -1.017,-0.509 -1.426,-1.724 -0.916,-2.745 v 0 c 0.484,-0.999 1.722,-1.413 2.727,-0.902 v 0 c 1.001,0.488 1.423,1.712 0.913,2.722 v 0 c -0.354,0.723 -1.076,1.133 -1.825,1.133 v 0 c -0.303,0 -0.61,-0.067 -0.899,-0.208 m -73.994,-6.005 c -1.738,-1.935 0.569,-5.2 -0.293,-7.694 v 0 c 0.096,-3.943 -1.348,-8.746 0.293,-12.108 v 0 c 0.569,-0.377 1.523,-0.285 1.909,0.097 v 0 c 0.481,0.966 0.481,2.31 0.39,3.368 v 0 c 0.96,1.635 2.32,1.049 3.744,0.464 v 0 c 1,-0.41 2.03,-0.821 2.979,-0.464 v 0 c 0.577,0.774 -0.481,1.537 -1.058,2.207 v 0 c -1.241,1.538 -4.129,0.673 -4.502,2.682 v 0 c 0.279,1.739 2.203,1.444 3.067,2.503 v 0 c 1.355,0 3.07,0.193 3.741,1.538 v 0 c 0.207,0.67 0.296,1.148 -0.091,1.636 v 0 c -0.668,0.285 -1.055,0.092 -1.638,-0.295 v 0 c -2.589,-0.569 -4.22,-4.041 -7.018,-2.493 v 0 c -0.177,2.493 -0.672,4.803 0.206,7.204 v 0 c -0.083,0.635 -0.873,1.362 -1.604,1.362 v 0 c -0.042,0 -0.084,-0.002 -0.125,-0.007 m 21.614,-4.62 c -3.457,-2.117 -1.536,-6.828 -1.536,-10.09 v 0 c 0.197,-3.072 -1.921,-6.339 0.284,-8.842 v 0 c 1.223,0.028 2.615,-0.295 4.038,-0.619 v 0 c 3.155,-0.716 6.466,-1.433 8.452,1.677 v 0 c -1.151,1.059 -3.55,0.866 -4.996,1.059 v 0 c -0.668,0.38 -1.578,0.357 -2.476,0.333 v 0 c -0.902,-0.024 -1.792,-0.048 -2.415,0.338 v 0 c -1.455,0.677 -1.249,2.025 -1.249,3.369 v 0 c 0.736,1.725 2.464,1.67 4.142,1.615 v 0 c 0.935,-0.03 1.855,-0.06 2.581,0.217 v 0 c 0.285,0.763 -0.099,1.24 -0.583,1.626 v 0 c -0.815,0.169 -1.643,0.062 -2.435,-0.045 v 0 c -1.447,-0.195 -2.779,-0.391 -3.705,1.1 v 0 c -0.295,1.056 -0.683,2.116 -0.102,3.173 v 0 c 2.307,3.744 7.497,1.822 10.863,1.15 v 0 c 1.248,-0.289 1.248,1.252 1.336,1.924 v 0 c -0.476,1.334 -2.016,1.271 -3.459,1.208 v 0 c -0.624,-0.027 -1.23,-0.054 -1.724,0.032 v 0 c -1.527,0.078 -3.332,1.196 -5.199,1.196 v 0 c -0.602,0 -1.21,-0.116 -1.817,-0.421 m -55.241,-5.92 c -0.66,-0.925 -0.446,-2.187 0.468,-2.847 v 0 c 0.919,-0.652 2.2,-0.446 2.849,0.477 v 0 c 0.664,0.914 0.447,2.187 -0.475,2.836 v 0 c -0.362,0.256 -0.777,0.38 -1.188,0.38 v 0 c -0.634,0 -1.256,-0.293 -1.654,-0.846 m 92.884,-0.968 c -0.662,-0.913 -0.447,-2.186 0.477,-2.847 v 0 c 0.908,-0.656 2.187,-0.441 2.837,0.477 v 0 c 0.649,0.92 0.448,2.197 -0.47,2.848 v 0 c -0.362,0.256 -0.777,0.379 -1.188,0.379 v 0 c -0.634,0 -1.258,-0.295 -1.656,-0.857 m -88.245,-5.93 c -0.65,-0.909 -0.436,-2.187 0.481,-2.837 v 0 c 0.913,-0.655 2.193,-0.435 2.834,0.473 v 0 c 0.653,0.919 0.435,2.192 -0.471,2.852 v 0 c -0.354,0.254 -0.764,0.376 -1.171,0.376 v 0 c -0.642,0 -1.276,-0.302 -1.673,-0.864 m 82.636,-3.191 c -0.656,-0.93 -0.433,-2.198 0.483,-2.847 v 0 c 0.903,-0.655 2.184,-0.441 2.834,0.472 v 0 c 0.663,0.918 0.438,2.187 -0.476,2.841 v 0 c -0.356,0.256 -0.769,0.379 -1.181,0.379 v 0 c -0.634,0 -1.263,-0.294 -1.66,-0.845 m 8.649,-0.967 c -0.654,-0.914 -0.449,-2.187 0.467,-2.843 v 0 c 0.913,-0.661 2.186,-0.445 2.85,0.474 v 0 c 0.65,0.913 0.448,2.186 -0.481,2.842 v 0 c -0.353,0.26 -0.764,0.383 -1.172,0.383 v 0 c -0.638,0 -1.268,-0.301 -1.664,-0.856 m -83.228,-0.306 c -2.739,0.022 -5.033,-0.446 -5.631,-1.617 v 0 c 0.137,-0.253 0.034,-0.574 0.026,-0.743 v 0 c 0.429,-0.751 0.986,-1.643 2.195,-2.282 v 0 l 1.174,1.611 c 1.115,0.569 3.038,0.602 4.687,0.489 v 0 c 5.727,-0.656 12.03,-3.287 15.429,-6.178 v 0 c 3.132,-2.669 6.134,-5.817 4.845,-8.25 v 0 c -0.309,-1.032 -3.435,-1.543 -3.435,-1.543 v 0 c 2.182,-0.627 4.338,-0.455 5.667,0.054 v 0 c 2.984,0.731 0.645,3.265 -0.1,4.991 v 0 c -2.32,3.39 -6.355,6.204 -10.789,8.718 v 0 c -2.761,2.038 -10.411,4.762 -13.703,4.763 v 0 c -0.129,0 -0.25,-0.004 -0.365,-0.013 m 61.745,-6.99 c -3.468,-0.8 -10.932,-5.145 -12.743,-7.618 v 0 c -1.778,-2.062 -2.917,-4.119 -2.42,-5.33 v 0 c 0.287,-0.057 0.457,-0.353 0.569,-0.465 v 0 c 0.855,-0.161 1.921,-0.318 3.178,0.203 v 0 l -0.47,1.924 c 0.304,1.226 1.526,2.707 2.664,3.883 v 0 c 4.223,3.933 10.312,7.027 14.706,7.731 v 0 c 4.081,0.65 8.421,0.898 9.439,-1.681 v 0 c 0.591,-0.882 -1.047,-3.599 -1.047,-3.599 v 0 c 1.883,1.241 3.162,2.991 3.64,4.334 v 0 c 1.372,2.744 -2.071,2.6 -3.874,3.176 v 0 c -0.55,0.057 -1.112,0.085 -1.684,0.085 v 0 c -3.683,0 -7.799,-1.136 -11.958,-2.643 m -61.488,2.455 c -0.763,-0.236 1.899,-1.922 3.324,-1.691 v 0 c 2.603,0.423 4.717,-0.646 6.192,-1.456 v 0 c 0.663,-0.355 4.141,-2.96 4.687,-4.148 v 0 c 0.967,-2.095 2.635,-4.695 3.014,-4.04 v 0 c 0.83,1.887 0.956,2.637 -2.861,6.431 v 0 c -1.45,1.434 -4.688,3.25 -7.556,4.323 v 0 c -1.646,0.537 -3.105,0.724 -4.507,0.724 v 0 c -0.775,0 -1.532,-0.057 -2.293,-0.143 m 65.414,-5.076 c -2.033,-0.178 -5.503,-1.456 -8.197,-2.955 v 0 c -2.289,-1.386 -3.639,-3.003 -4.851,-4.787 v 0 c -0.315,-0.73 2.705,0.188 3.452,1.429 v 0 c 1.359,2.251 3.557,3.159 5.117,3.772 v 0 c 0.698,0.269 4.944,1.231 6.202,0.87 v 0 c 2.224,-0.629 5.278,-1.048 5.022,-0.323 v 0 c -0.7,1.466 -1.161,2.127 -3.991,2.127 v 0 c -0.74,0 -1.642,-0.045 -2.754,-0.133 m -35.929,-7.855 c -0.654,-0.923 -0.448,-2.197 0.466,-2.847 v 0 c 0.921,-0.655 2.195,-0.435 2.858,0.479 v 0 c 0.65,0.907 0.435,2.187 -0.492,2.837 v 0 c -0.356,0.26 -0.772,0.385 -1.184,0.385 v 0 c -0.633,0 -1.258,-0.296 -1.648,-0.854 m 9.921,-0.172 c -0.644,-0.906 -0.435,-2.186 0.483,-2.836 v 0 c 0.913,-0.649 2.198,-0.44 2.835,0.468 v 0 c 0.652,0.924 0.445,2.198 -0.468,2.858 v 0 c -0.356,0.253 -0.768,0.375 -1.177,0.375 v 0 c -0.641,0 -1.273,-0.3 -1.673,-0.865"
               style="fill:url(#radialGradient380);stroke:none"
               id="path382" />
          </g>
        </g>
      </g>
    </g>
    <path
       style="fill:#ffffff;stroke-width:0.0441942"
       d="m 191.25029,243.4726 c -0.50078,-0.16609 -0.88475,-0.49216 -1.10855,-0.94142 l -0.12889,-0.25872 v -12.50695 -12.50695 l 0.11844,-0.25271 c 0.23841,-0.50865 0.74359,-0.90048 1.29577,-1.00502 0.1936,-0.0367 2.50175,-0.0466 8.55158,-0.037 l 8.2864,0.0131 0.25421,0.10264 c 0.48866,0.19732 0.86753,0.59737 1.04255,1.10082 0.0673,0.19345 0.0743,1.04342 0.0861,10.35331 0.009,6.78095 -0.002,10.25733 -0.0327,10.48882 -0.12066,0.91744 -0.80641,1.53691 -1.70136,1.53691 -0.74402,0 -1.39748,-0.48693 -1.62214,-1.20876 -0.0784,-0.25176 -0.0817,-0.64235 -0.0817,-9.60556 v -9.34313 h -6.40782 -6.40782 l -0.0114,11.43524 -0.0114,11.43524 -0.11845,0.25271 c -0.16421,0.35036 -0.47598,0.66909 -0.82026,0.83858 -0.23635,0.11635 -0.34666,0.14266 -0.64545,0.15391 -0.21778,0.008 -0.43034,-0.01 -0.53716,-0.0451 z"
       id="path6"
       transform="matrix(0.75000002,0,0,-0.75000002,219.1111,396.4436)" />
    <path
       style="fill:#ffffff;stroke-width:0.0441942"
       d="m 218.40623,243.11055 c -0.11014,-0.0339 -0.30843,-0.1373 -0.44064,-0.22967 -0.63001,-0.44014 -0.89911,-1.22154 -0.66858,-1.94136 0.20277,-0.63312 9.69729,-24.43527 9.81575,-24.60744 0.1766,-0.25669 0.36552,-0.40925 0.70821,-0.57191 0.25523,-0.12115 0.3316,-0.1363 0.68501,-0.13588 0.33749,4e-4 0.43602,0.0183 0.65045,0.11822 0.26995,0.12579 0.64381,0.44652 0.78301,0.67175 0.11199,0.18121 8.77336,20.45851 8.83658,20.68748 0.16172,0.58577 -0.0844,1.3104 -0.58419,1.71994 -0.34457,0.28234 -0.56836,0.35719 -1.06799,0.35719 -0.3862,0 -0.47358,-0.0148 -0.69275,-0.11758 -0.30044,-0.14084 -0.61959,-0.42468 -0.77426,-0.68861 -0.0621,-0.1059 -0.49432,-1.09147 -0.96057,-2.19015 l -0.84773,-1.9976 h -5.10008 -5.10008 l -0.69977,1.76776 c -2.43612,6.15418 -2.51155,6.33835 -2.68677,6.56002 -0.43391,0.54893 -1.20664,0.7979 -1.8556,0.59784 z m 13.96385,-12.38382 c -0.01,-0.11157 -3.78401,-8.81447 -3.81991,-8.80812 -0.0336,0.006 -2.99122,7.3468 -3.46865,8.60925 l -0.0877,0.23202 h 3.68959 c 2.02928,0 3.68829,-0.0149 3.68671,-0.0332 z"
       id="path7"
       transform="matrix(0.75000002,0,0,-0.75000002,219.1111,396.4436)" />
    <path
       style="fill:#ffffff;stroke-width:0.125"
       d="m 246.65703,243.10692 c -0.22301,-0.10994 -0.51911,-0.38376 -0.65799,-0.60848 -0.24964,-0.40392 -0.25215,-0.55483 -0.21953,-13.22472 l 0.033,-12.81613 0.3125,-0.33865 c 0.62128,-0.67328 1.49341,-0.81562 2.18567,-0.35671 0.1385,0.0918 3.42995,3.99061 7.31433,8.66397 3.88437,4.67337 7.10469,8.50024 7.15625,8.50417 0.0516,0.004 0.0937,-4.11406 0.0937,-9.15107 0,-8.6309 0.0131,-9.18272 0.22841,-9.58409 0.26309,-0.49056 0.91112,-0.88292 1.45714,-0.88224 0.50834,6.3e-4 1.12828,0.39867 1.40213,0.90025 0.21085,0.38618 0.22719,1.10717 0.26292,11.59928 0.021,6.15312 0.001,11.495 -0.0436,11.87083 -0.068,0.56868 -0.16108,0.76269 -0.55464,1.15625 -0.39232,0.39232 -0.55964,0.47292 -0.98174,0.47292 -0.27986,0 -0.66397,-0.0703 -0.8536,-0.15625 -0.20688,-0.0938 -3.20729,-3.59752 -7.50234,-8.76096 l -7.15758,-8.6047 -0.0348,10.17278 c -0.0327,9.56085 -0.0484,10.19349 -0.26033,10.51693 -0.49849,0.7606 -1.38894,1.01656 -2.17993,0.62662 z"
       id="path10"
       transform="matrix(0.75000002,0,0,-0.75000002,219.1111,396.4436)" />
    <path
       style="fill:#ffffff;stroke-width:0.125"
       d="m 280.37758,243.30398 c -3.87687,-1.01492 -6.71199,-4.16717 -7.91826,-8.80398 -0.47599,-1.82967 -0.62574,-3.34383 -0.54394,-5.5 0.22635,-5.96617 2.30836,-10.40986 5.61495,-11.98412 4.45094,-2.1191 9.20901,-1.28591 12.99932,2.27632 1.03598,0.97364 1.59535,1.78989 1.59535,2.32797 0,0.82229 -0.82042,1.69233 -1.59582,1.69233 -0.52855,0 -1.10864,-0.33985 -1.59667,-0.93542 -1.09466,-1.33589 -3.14693,-2.60375 -4.87346,-3.01073 -1.64729,-0.3883 -3.96426,-0.0587 -5.39044,0.76684 -1.51083,0.87454 -2.82647,3.53251 -3.22879,6.52306 l -0.0883,0.65625 6.54298,7e-4 c 4.2871,4.5e-4 6.7101,0.0471 7.0277,0.13528 0.61672,0.17124 1.01811,0.57337 1.20931,1.21153 0.13061,0.43593 0.11938,0.56704 -0.0842,0.98238 -0.12919,0.26362 -0.42601,0.60662 -0.65962,0.76221 l -0.42473,0.2829 h -6.87267 -6.87266 l 0.085,0.86291 c 0.2863,2.90551 1.50935,5.67108 3.15501,7.1341 1.68924,1.50178 4.14867,1.96275 6.54016,1.22584 1.5495,-0.47747 3.16995,-1.51698 4.33746,-2.78246 0.57699,-0.62541 0.83583,-0.81273 1.22356,-0.88547 0.61381,-0.11515 1.24245,0.19132 1.65596,0.80731 0.59107,0.8805 0.27541,1.6565 -1.25704,3.09028 -1.69444,1.58533 -3.95788,2.78799 -6.09195,3.23691 -1.2538,0.26374 -3.33119,0.22998 -4.48831,-0.0729 z"
       id="path11"
       transform="matrix(0.75000002,0,0,-0.75000002,219.1111,396.4436)" />
    <path
       style="fill:#ffffff;stroke-width:0.125"
       d="m 298.03371,243.12718 c -0.22208,-0.0966 -0.51718,-0.36154 -0.65578,-0.58886 -0.24827,-0.40721 -0.252,-0.60003 -0.252,-13.03832 0,-12.3016 0.006,-12.63525 0.24401,-13.02518 0.50541,-0.8289 0.0832,-0.79588 9.70083,-0.75857 l 8.69852,0.0337 0.42786,0.46691 0.42785,0.46692 -4.7e-4,10.65808 c -4.5e-4,10.20726 -0.0104,10.67437 -0.23524,11.04309 -0.24721,0.4054 -0.93102,0.8025 -1.38191,0.8025 -0.14704,0 -0.48236,-0.10969 -0.74516,-0.24377 -0.9299,-0.4744 -0.88722,0.0334 -0.88722,-10.55637 v -9.44986 h -6.5 -6.5 l -4.7e-4,11.59375 c -4.5e-4,11.27836 -0.007,11.60464 -0.24447,11.99393 -0.44234,0.72547 -1.26736,0.96238 -2.09635,0.602 z"
       id="path12"
       transform="matrix(0.75000002,0,0,-0.75000002,219.1111,396.4436)" />
    <path
       style="fill:#ffffff;stroke-width:0.125"
       d="m 324.70186,243.17646 c -0.74012,-0.58218 -0.7019,0.16101 -0.70139,-13.639 4.5e-4,-12.33832 0.007,-12.6727 0.24447,-13.06264 0.56868,-0.93267 1.85058,-1.05074 2.59452,-0.23897 l 0.41054,0.44798 v 12.89154 12.89154 l -0.48529,0.4853 c -0.43387,0.43386 -0.5513,0.48529 -1.10815,0.48529 -0.44235,0 -0.71901,-0.0756 -0.9547,-0.26104 z"
       id="path13"
       transform="matrix(0.75000002,0,0,-0.75000002,219.1111,396.4436)" />
    <path
       style="fill:#ffffff;stroke-width:0.125"
       d="m 344.1875,241.08027 c -4.05625,-1.22242 -7.77907,-2.34574 -8.27293,-2.49625 -1.58502,-0.48307 -2.1755,-1.3331 -1.6894,-2.43201 0.22099,-0.49957 0.51915,-0.71451 4.80983,-3.4673 2.60958,-1.67424 4.52773,-2.98191 4.46597,-3.04461 -0.0596,-0.0605 -1.92223,-1.10858 -4.13929,-2.32918 -2.43808,-1.34228 -4.12386,-2.34673 -4.26597,-2.54181 -0.50786,-0.69718 -0.33815,-1.83509 0.33994,-2.27939 0.15031,-0.0985 3.859,-1.38803 8.24154,-2.86564 5.62458,-1.89639 8.13123,-2.68658 8.52237,-2.68658 1.43939,0 2.10249,1.97596 0.9637,2.87173 -0.16659,0.13105 -3.05585,1.15527 -6.42058,2.27606 -3.36472,1.12079 -6.11601,2.06635 -6.11396,2.10125 0.002,0.0349 1.62722,0.95337 3.6115,2.04104 1.98428,1.08766 3.7277,2.10522 3.87427,2.26123 0.58139,0.61886 0.56077,1.62055 -0.0456,2.21451 -0.16658,0.16317 -2.10374,1.4498 -4.3048,2.85918 -2.20106,1.40937 -4.00466,2.59382 -4.00801,2.63209 -0.003,0.0383 2.79235,0.90453 6.21266,1.92501 3.42031,1.02048 6.44375,1.97354 6.71875,2.11791 1.01037,0.53042 1.18758,1.66938 0.3944,2.53489 -0.71616,0.78146 -0.63583,0.79675 -8.8944,-1.69213 z"
       id="path15"
       transform="matrix(0.75000002,0,0,-0.75000002,219.1111,396.4436)" />
    <path
       style="fill:#ffffff;stroke-width:0.125"
       d="m 367.50888,243.47473 c -0.23573,-0.1236 -0.54511,-0.38352 -0.6875,-0.57761 -0.25662,-0.34978 -0.25917,-0.44953 -0.29212,-11.40625 l -0.0333,-11.05337 h -3.82474 c -3.68963,0 -3.84173,-0.01 -4.30597,-0.27047 -0.84455,-0.47466 -1.10124,-1.46438 -0.58156,-2.2423 0.60486,-0.90542 0.0745,-0.86214 10.52876,-0.85929 8.93967,0.002 9.39928,0.0136 9.89796,0.23998 1.26493,0.5743 1.24147,2.42432 -0.0375,2.95872 -0.32399,0.13537 -1.27853,0.17336 -4.35642,0.17336 H 369.875 l -1.9e-4,10.90625 c -1.9e-4,10.13622 -0.0156,10.93651 -0.21876,11.33486 -0.4386,0.86016 -1.36789,1.20471 -2.14717,0.79612 z"
       id="path16"
       transform="matrix(0.75000002,0,0,-0.75000002,219.1111,396.4436)" />
    <path
       style="fill:#ffffff;stroke-width:0.125"
       d="m 384.39873,243.1843 c -0.81043,-0.49411 -0.77373,0.15191 -0.77373,-13.6218 0,-13.77371 -0.0367,-13.1277 0.77373,-13.6218 0.80268,-0.48938 1.82303,-0.24793 2.30308,0.54499 0.21968,0.36287 0.23815,0.75653 0.27195,5.79556 l 0.0363,5.40625 h 6.30749 6.30749 l 7e-4,-5.15625 c 4.2e-4,-3.11499 0.0511,-5.33775 0.12803,-5.61472 0.0714,-0.25718 0.31999,-0.62762 0.56616,-0.84375 0.53091,-0.46615 1.26873,-0.52085 1.89279,-0.14034 0.82922,0.5056 0.78732,-0.11531 0.78732,11.66787 v 10.67522 l -0.2829,0.42473 c -0.38453,0.57733 -1.09169,0.91359 -1.68656,0.80199 -0.55839,-0.10475 -1.21267,-0.75665 -1.32547,-1.32065 -0.044,-0.22019 -0.0801,-1.91207 -0.0801,-3.75973 v -3.35937 h -6.30764 -6.30764 l -0.0361,5.59375 c -0.0337,5.22298 -0.0517,5.61955 -0.2718,5.98306 -0.48005,0.79292 -1.5004,1.03437 -2.30308,0.54499 z"
       id="path17"
       transform="matrix(0.75000002,0,0,-0.75000002,219.1111,396.4436)" />
    <path
       style="fill:#ffffff;stroke-width:0.125"
       d="m 411.27963,243.18789 c -0.22432,-0.13677 -0.50001,-0.44193 -0.61265,-0.67812 -0.19412,-0.40709 -0.15789,-1.0823 0.69592,-12.96961 0.49539,-6.89709 0.95765,-12.72113 1.02725,-12.94232 0.35007,-1.11259 1.80658,-1.47033 2.67506,-0.65703 0.139,0.13016 1.99465,4.06391 4.12368,8.74167 2.12903,4.67776 3.89968,8.50323 3.93479,8.50104 0.0351,-0.002 1.75132,-3.80364 3.81382,-8.44767 2.0625,-4.64403 3.8815,-8.57701 4.04222,-8.73995 0.16072,-0.16294 0.48877,-0.36112 0.72899,-0.4404 0.62082,-0.20489 1.43448,0.11717 1.80318,0.71373 0.26354,0.42643 0.28904,0.82461 0.8349,13.03865 0.30968,6.92933 0.52377,12.75529 0.47576,12.94657 -0.048,0.19128 -0.27522,0.53572 -0.50492,0.76542 -0.36679,0.36678 -0.49704,0.41763 -1.06984,0.41763 -0.58801,0 -0.69875,-0.0465 -1.12512,-0.47292 -0.39875,-0.39875 -0.48418,-0.58008 -0.54474,-1.15625 -0.0395,-0.37583 -0.21695,-4.28333 -0.39432,-8.68333 -0.17737,-4.4 -0.36156,-8.15422 -0.4093,-8.34271 -0.0733,-0.28917 -0.56432,0.72624 -3.14352,6.5 -3.42796,7.67377 -3.41704,7.65521 -4.50579,7.65521 -0.56861,0 -0.69969,-0.0509 -1.0468,-0.40625 -0.28379,-0.29055 -1.31824,-2.42692 -3.63213,-7.5012 -1.77944,-3.90223 -3.25736,-7.07293 -3.28428,-7.04601 -0.0269,0.0269 -0.34627,4.15145 -0.70967,9.16563 -0.71636,9.88434 -0.67868,9.62356 -1.4571,10.08339 -0.46823,0.27659 -1.22013,0.25679 -1.71539,-0.0452 z"
       id="path18"
       transform="matrix(0.75000002,0,0,-0.75000002,219.1111,396.4436)" />
    <path
       style="fill:#ffffff;stroke-width:0.125"
       d="m 443.52613,243.55525 c -0.22625,-0.0486 -0.52733,-0.19321 -0.66905,-0.32147 -0.63184,-0.57181 -0.60708,-0.0193 -0.60708,-13.54628 0,-13.95153 -0.048,-13.12074 0.78732,-13.63006 0.7593,-0.46298 1.78269,-0.2016 2.29964,0.58733 0.21365,0.32606 0.22554,1.01354 0.22554,13.03722 0,12.16941 -0.01,12.7089 -0.23331,13.07828 -0.39088,0.64547 -1.08127,0.94987 -1.80306,0.79498 z"
       id="path19"
       transform="matrix(0.75000002,0,0,-0.75000002,219.1111,396.4436)" />
    <path
       style="fill:#ffffff;stroke-width:0.125"
       d="m 463.25287,242.67913 c -6.17163,-1.33632 -10.62787,-6.8361 -10.62787,-13.11663 0,-6.61165 4.92825,-12.29662 11.4918,-13.25634 1.39306,-0.20369 3.7784,-0.088 5.04947,0.24489 5.18073,1.35686 9.04663,5.41298 10.01262,10.50527 0.25167,1.32671 0.25167,3.68565 0,5.01236 -0.94737,4.9941 -4.72541,9.06026 -9.70309,10.44303 -1.66225,0.46177 -4.50972,0.53837 -6.22293,0.16742 z m 5.57561,-3.43707 c 3.33242,-0.9651 5.85165,-3.48406 6.86782,-6.86706 0.45427,-1.51235 0.48635,-3.84381 0.0738,-5.35977 -0.79238,-2.91138 -2.63911,-5.14571 -5.33255,-6.45177 -1.56802,-0.76034 -2.69313,-1.01358 -4.48821,-1.01018 -1.56788,0.003 -2.8863,0.28075 -4.159,0.87628 -2.32613,1.08847 -4.24249,3.13132 -5.14995,5.48988 -0.48771,1.26762 -0.64034,2.16645 -0.64034,3.77102 0,1.67553 0.29653,2.91441 1.06142,4.43454 2.17755,4.3276 7.10069,6.46849 11.76706,5.11706 z"
       id="path21"
       transform="matrix(0.75000002,0,0,-0.75000002,219.1111,396.4436)" />
    <path
       style="fill:#ffffff;stroke-width:0.0883883"
       d="m 187.9023,286.1751 c -0.39144,-0.20449 -0.51549,-0.33081 -0.71611,-0.7292 l -0.24266,-0.48187 0.6557,-14.55349 c 0.61038,-13.5477 0.66769,-14.57699 0.82919,-14.89344 0.0954,-0.18697 0.24734,-0.40475 0.33759,-0.48396 0.68578,-0.60193 1.75096,-0.57156 2.34489,0.0668 0.12994,0.13968 2.0148,3.35639 4.18857,7.14825 2.17377,3.79186 4.00036,6.94641 4.05907,7.01012 0.0852,0.0924 0.89673,-1.3086 4.01896,-6.93849 2.1517,-3.87987 3.97751,-7.12815 4.05736,-7.2184 0.40102,-0.45325 1.29819,-0.63192 1.89368,-0.37713 0.35992,0.154 0.72316,0.53858 0.89321,0.94567 0.10194,0.24404 0.31875,3.62066 0.9513,14.81581 0.80833,14.30603 0.81712,14.50453 0.65765,14.85816 -0.40959,0.90833 -1.36959,1.30285 -2.21773,0.91141 -0.42254,-0.19501 -0.69706,-0.47689 -0.87146,-0.89481 -0.0967,-0.23181 -0.28888,-3.12716 -0.77566,-11.68815 -0.35589,-6.259 -0.66789,-11.38 -0.69333,-11.38 -0.0254,0 -1.46917,2.5614 -3.20828,5.69199 -1.73912,3.13059 -3.24432,5.79661 -3.34491,5.92449 -0.61738,0.78487 -1.97627,0.75385 -2.57943,-0.0589 -0.11759,-0.15844 -1.6774,-2.84394 -3.46625,-5.96777 -1.78885,-3.12384 -3.2676,-5.66456 -3.28612,-5.64604 -0.0185,0.0185 -0.24835,4.90119 -0.51077,10.85041 -0.26241,5.94922 -0.49655,11.10652 -0.5203,11.46068 -0.0584,0.87025 -0.32661,1.33184 -0.9563,1.64563 -0.5882,0.29311 -0.91,0.28928 -1.49786,-0.0178 z"
       id="path22"
       transform="matrix(0.75000002,0,0,-0.75000002,219.1111,396.4436)" />
    <path
       style="fill:#ffffff;stroke-width:0.0883883"
       d="m 222.29732,286.28164 c -0.62561,-0.2713 -1.06129,-0.90154 -1.06129,-1.53522 0,-0.26228 0.67201,-2.03131 2.52794,-6.65475 1.39037,-3.46363 4.017,-10.01018 5.83696,-14.5479 1.81996,-4.53772 3.37282,-8.34778 3.45081,-8.4668 0.078,-0.11903 0.31652,-0.31881 0.53008,-0.44396 0.73876,-0.43295 1.7366,-0.21412 2.18699,0.4796 0.29996,0.46203 8.27142,23.10124 8.27142,23.49111 0,0.35234 -0.19779,0.88019 -0.42322,1.12947 -0.26236,0.29013 -0.8247,0.52246 -1.26455,0.52246 -0.47716,0 -1.05397,-0.28007 -1.29613,-0.62934 -0.0846,-0.12208 -0.55183,-1.35751 -1.0382,-2.74542 l -0.88432,-2.52346 h -5.12338 -5.12337 l -2.26611,5.63774 c -1.36293,3.39076 -2.3504,5.72926 -2.47759,5.86739 -0.46528,0.50525 -1.24115,0.68139 -1.84604,0.41908 z m 15.53921,-15.36957 c 0.0499,-0.05 -3.46357,-9.94547 -3.53126,-9.94547 -0.044,0 -4.05344,9.90087 -4.05367,10.01005 -8e-5,0.036 7.54857,-0.0282 7.58493,-0.0646 z"
       id="path23"
       transform="matrix(0.75000002,0,0,-0.75000002,219.1111,396.4436)" />
    <path
       style="fill:#ffffff;stroke-width:0.0883883"
       d="m 255.39447,286.2563 c -0.43562,-0.19788 -0.79866,-0.61248 -0.91949,-1.05011 -0.0952,-0.34475 0.0403,-29.06775 0.13874,-29.41031 0.10141,-0.35293 0.48572,-0.81314 0.85,-1.01787 0.73629,-0.41382 1.68852,-0.17247 2.16612,0.54901 l 0.24316,0.36734 0.0247,4.00614 c 0.0136,2.20337 0.0457,4.00613 0.0715,4.00613 0.0257,0 2.15431,-1.89924 4.73014,-4.22054 2.57583,-2.3213 4.84691,-4.31004 5.04683,-4.41942 1.06647,-0.58348 2.37086,0.22968 2.36717,1.47572 -10e-4,0.34591 -0.0598,0.59107 -0.19888,0.82996 -0.12026,0.20653 -2.26949,2.19298 -5.49881,5.08233 -2.91577,2.60881 -5.30225,4.76723 -5.3033,4.79649 -10e-4,0.0292 2.64311,3.06431 5.87592,6.74457 3.2328,3.68025 5.96666,6.8383 6.07524,7.01787 0.62373,1.03155 -0.20658,2.49201 -1.41678,2.49201 -0.78468,0 -0.68341,0.1004 -6.39648,-6.34091 l -5.37725,-6.06269 -0.0655,6.88681 c -0.0406,4.26998 -0.10028,7.01125 -0.15703,7.21429 -0.18615,0.66596 -0.9047,1.21544 -1.58943,1.21544 -0.17015,0 -0.4701,-0.073 -0.66657,-0.16226 z"
       id="path25"
       transform="matrix(0.75000002,0,0,-0.75000002,219.1111,396.4436)" />
    <path
       style="fill:#ffffff;stroke-width:0.0883883"
       d="m 291.2838,285.39736 c -2.1802,-0.38644 -4.01517,-1.35788 -5.66034,-2.99659 -2.75286,-2.74205 -4.28589,-6.95705 -4.2824,-11.77426 10e-4,-2.00793 0.2779,-4.25899 0.75367,-6.13698 0.99686,-3.93486 2.9327,-6.67287 5.54731,-7.84596 4.2255,-1.89585 8.86605,-1.3014 12.70156,1.62705 1.36844,1.04482 2.56909,2.38472 2.75299,3.0723 0.31441,1.17556 -0.81921,2.29672 -2.01969,1.99748 -0.37098,-0.0925 -0.53986,-0.22643 -1.35201,-1.07239 -2.24075,-2.33405 -4.36489,-3.3473 -7.00182,-3.33998 -2.22765,0.006 -4.25763,0.75459 -5.3101,1.95772 -0.82458,0.94262 -1.55344,2.4558 -1.99737,4.14671 -0.27942,1.06431 -0.53919,2.43643 -0.53967,2.85052 l -2.9e-4,0.24307 h 7.47234 c 7.24207,0 7.48278,0.005 7.81125,0.1729 0.85862,0.43804 1.1798,1.38631 0.75277,2.22256 -0.17505,0.3428 -0.69609,0.76459 -1.07421,0.8696 -0.22069,0.0613 -2.84481,0.0929 -7.7404,0.0932 l -7.40653,4.9e-4 0.044,0.28726 c 0.0242,0.158 0.0671,0.5458 0.0953,0.86179 0.27086,3.02884 1.64986,6.1566 3.39305,7.69595 2.88778,2.55007 6.92884,2.42891 10.61435,-0.31825 0.77657,-0.57885 1.77118,-1.54515 1.77118,-1.72076 0,-0.11577 0.59676,-0.45569 0.93323,-0.53158 0.1671,-0.0377 0.47215,-0.0307 0.67789,0.0155 1.20497,0.27074 1.68204,1.61147 0.95495,2.68374 -0.67132,0.99002 -2.25892,2.35069 -3.81693,3.27135 -2.51963,1.48889 -5.55045,2.11484 -8.07411,1.66752 z"
       id="path26"
       transform="matrix(0.75000002,0,0,-0.75000002,219.1111,396.4436)" />
    <path
       style="fill:#ffffff;stroke-width:0.0883883"
       d="m 312.01087,284.7487 c -0.91906,-0.18545 -1.50295,-0.93181 -1.38968,-1.77635 0.0585,-0.43589 10.8864,-25.93375 11.17889,-26.32431 0.26762,-0.35734 0.82292,-0.6266 1.29772,-0.62925 0.48286,-0.003 1.07982,0.30879 1.33723,0.69777 0.11819,0.17861 2.54549,6.09028 5.39399,13.13706 5.5574,13.74821 5.39533,13.29954 5.04738,13.97241 -0.22758,0.44007 -0.70742,0.80091 -1.20777,0.90821 -0.51065,0.10952 -21.1185,0.12327 -21.65776,0.0145 z m 18.81198,-3.44873 c -0.22368,-0.64024 -7.73365,-19.09504 -7.77066,-19.09542 -0.0283,-2.8e-4 -1.87356,4.28521 -4.10063,9.52333 -2.22706,5.23811 -4.06575,9.55367 -4.08595,9.59013 -0.0202,0.0365 3.56853,0.0663 7.97498,0.0663 5.04574,0 8.00082,-0.0312 7.98226,-0.0843 z"
       id="path27"
       transform="matrix(0.75000002,0,0,-0.75000002,219.1111,396.4436)" />
    <path
       style="fill:#ffffff;stroke-width:0.0883883"
       d="m 355.67471,285.09439 c -4.27204,-0.59269 -7.92137,-2.76688 -10.33166,-6.15537 -2.70655,-3.805 -3.46976,-8.73226 -2.03494,-13.13753 1.71691,-5.27136 6.23891,-9.15238 11.74788,-10.08266 4.08281,-0.68945 8.38635,0.45439 11.66726,3.10105 4.82026,3.88842 6.72726,10.37374 4.77046,16.22331 -1.69023,5.05266 -6.00651,8.83225 -11.28472,9.88157 -1.0772,0.21415 -3.54733,0.30656 -4.53428,0.16963 z m 4.11006,-3.52681 c 4.60795,-1.00455 8.1096,-4.60925 8.93927,-9.20234 0.20244,-1.12068 0.19761,-2.95519 -0.0107,-4.06241 -0.17165,-0.9124 -0.63506,-2.33496 -0.99187,-3.04474 -1.5019,-2.98769 -4.2163,-5.16474 -7.51946,-6.03089 -1.18179,-0.30989 -3.37979,-0.38669 -4.70841,-0.16453 -4.04743,0.67678 -7.46419,3.54844 -8.86623,7.45174 -0.43108,1.20013 -0.6157,2.32318 -0.62092,3.77716 -0.005,1.51377 0.10492,2.2638 0.52681,3.58041 0.55248,1.72415 1.3686,3.08765 2.63901,4.409 1.8482,1.92231 4.14756,3.08725 6.81178,3.45109 0.90816,0.12402 2.86593,0.0393 3.8007,-0.16449 z"
       id="path29"
       transform="matrix(0.75000002,0,0,-0.75000002,219.1111,396.4436)" />
    <path
       style="fill:#ffffff;stroke-width:0.0883883"
       d="m 382.50057,286.26011 c -0.41391,-0.19777 -0.78985,-0.57524 -0.92245,-0.92618 -0.0649,-0.17182 -0.094,-4.40547 -0.094,-13.68094 0,-11.08151 0.0209,-13.48213 0.11941,-13.71791 0.15242,-0.36479 0.65608,-0.80809 1.07532,-0.94645 0.37572,-0.124 0.92993,-0.0597 1.28288,0.14875 0.13191,0.0779 3.57606,3.85454 7.65366,8.39248 l 7.41381,8.2508 0.0442,-8.99239 c 0.0492,-10.01149 -0.003,-9.23577 0.65724,-9.81524 0.8039,-0.70584 2.03029,-0.45572 2.52556,0.51509 0.17299,0.3391 0.17596,0.53697 0.17596,11.75405 0,11.02105 -0.006,11.42029 -0.16738,11.73707 -0.42932,0.84119 -1.46002,1.15802 -2.28887,0.70359 -0.25603,-0.14038 -2.52852,-2.61543 -7.72579,-8.41445 l -7.36305,-8.21558 -0.0442,11.04401 c -0.044,10.98643 -0.0451,11.04584 -0.22884,11.39755 -0.3973,0.76074 -1.37929,1.11653 -2.11345,0.76575 z"
       id="path32"
       transform="matrix(0.75000002,0,0,-0.75000002,219.1111,396.4436)" />
    <path
       style="fill:#ffffff;stroke-width:0.0883883"
       d="m 413.00669,286.11619 c -0.18779,-0.0669 -0.45556,-0.23106 -0.59506,-0.36471 -0.56144,-0.53789 -0.5285,0.48019 -0.50192,-15.51057 l 0.0242,-14.54635 0.24317,-0.36744 c 0.65822,-0.99461 2.12582,-0.99461 2.78404,0 l 0.24316,0.36744 0.0229,14.61464 c 0.0225,14.37668 0.0201,14.62018 -0.1508,14.95507 -0.21874,0.42878 -0.62166,0.77128 -1.04596,0.88911 -0.42476,0.11797 -0.60701,0.11135 -1.02368,-0.0372 z"
       id="path33"
       transform="matrix(0.75000002,0,0,-0.75000002,219.1111,396.4436)" />
    <path
       style="fill:#ffffff;stroke-width:0.0883883"
       d="m 427.47653,286.20856 c -0.57522,-0.26783 -0.94482,-0.83508 -0.9488,-1.45622 -0.002,-0.32911 1.00913,-3.04649 5.28271,-14.19561 3.08271,-8.04233 5.37941,-13.91267 5.51111,-14.08635 0.73368,-0.96755 2.29926,-0.76106 2.80911,0.3705 0.1134,0.25168 1.85996,5.16476 3.88125,10.91795 2.72085,7.74437 3.67507,10.56236 3.67507,10.85319 0,0.75784 -0.49542,1.39451 -1.23424,1.58616 -0.37624,0.0976 -0.51348,0.0956 -0.87767,-0.0125 -0.59118,-0.17556 -0.96681,-0.61351 -1.28462,-1.49776 -0.13967,-0.38861 -0.33038,-0.91537 -0.4238,-1.1706 l -0.16985,-0.46403 h -5.3779 -5.37791 l -0.40248,1.03856 c -0.22137,0.57121 -0.95959,2.48716 -1.64049,4.25767 -1.31148,3.41017 -1.40948,3.59401 -2.08195,3.90536 -0.4726,0.2188 -0.794,0.20769 -1.33954,-0.0463 z m 14.99554,-12.58132 c 0,-0.0632 -3.4648,-9.96848 -3.77229,-10.78436 -0.0783,-0.20769 -0.15502,-0.36492 -0.17055,-0.3494 -0.0329,0.033 -4.13338,10.70701 -4.22647,11.00216 l -0.0627,0.19888 h 4.11601 c 2.26381,0 4.11602,-0.0303 4.11602,-0.0673 z"
       id="path34"
       transform="matrix(0.75000002,0,0,-0.75000002,219.1111,396.4436)" />
    <path
       style="fill:#ffffff;stroke-width:0.0883883"
       d="m 475.21995,286.31399 c -0.14584,-0.052 -4.14131,-1.54065 -8.87882,-3.30819 -6.51094,-2.42918 -8.67674,-3.27288 -8.87208,-3.45616 -0.32866,-0.30836 -0.5858,-0.86098 -0.5858,-1.25893 0,-0.41361 0.26473,-0.97412 0.58616,-1.24109 0.14391,-0.11952 2.21644,-1.47022 4.60562,-3.00155 2.38918,-1.53133 4.34539,-2.80541 4.34712,-2.83128 0.002,-0.0259 -1.77676,-1.0199 -3.95222,-2.20894 -4.22611,-2.30985 -4.60646,-2.56785 -4.78988,-3.24902 -0.18851,-0.70009 0.14237,-1.51517 0.74879,-1.84451 0.53913,-0.2928 16.25688,-4.89227 16.71833,-4.89227 0.2133,0 0.51643,0.0537 0.67362,0.11942 0.54532,0.22785 1.03216,0.98547 1.03385,1.6089 10e-4,0.38353 -0.44654,1.09577 -0.82564,1.31385 -0.20191,0.11615 -3.06061,0.99981 -6.35267,1.96369 -3.29205,0.96389 -5.95696,1.78062 -5.92201,1.81497 0.0349,0.0343 1.59486,0.90509 3.46648,1.93498 1.87163,1.0299 3.53173,1.9943 3.68912,2.14311 0.556,0.52569 0.67388,1.2298 0.32795,1.95881 -0.18766,0.39546 0.0625,0.22083 -4.75246,3.31734 -2.22998,1.4341 -4.05275,2.64279 -4.0506,2.68597 0.002,0.0432 3.17205,1.25949 7.04421,2.70292 4.81453,1.7947 7.13826,2.70256 7.35014,2.87162 0.17041,0.13598 0.38431,0.41122 0.47532,0.61165 0.59977,1.32076 -0.71234,2.7337 -2.08453,2.24471 z"
       id="path35"
       transform="matrix(0.75000002,0,0,-0.75000002,219.1111,396.4436)" />
    <path
       style="fill:#ffffff;fill-opacity:1;stroke-width:0.125"
       d="m 266.375,127.1875 v -5.375 h 6.1875 6.1875 v 0.625 0.625 h -5.0625 -5.0625 v 1.6875 1.6875 H 273.3125 278 V 127 v 0.5625 h -4.6875 -4.6875 v 1.9375 1.9375 H 273.8125 279 V 132 v 0.5625 h -6.3125 -6.3125 z"
       id="path36"
       transform="matrix(0.75000002,0,0,-0.75000002,219.1111,396.4436)"
       sodipodi:nodetypes="ccccccccccccccccccccccccc" />
    <path
       style="fill:#ffffff;stroke-width:0.125"
       d="m 286.88072,132.46875 c 0.003,-0.0516 1.34236,-2.45625 2.97602,-5.34375 l 2.9703,-5.25 1.19212,-0.0355 1.19212,-0.0356 3.07277,5.3793 3.07278,5.37929 -1.14717,-0.005 -1.14716,-0.005 -2.5,-4.54464 c -1.375,-2.49955 -2.53581,-4.52305 -2.57958,-4.49668 -0.0438,0.0264 -1.16542,2.07357 -2.49256,4.54933 l -2.41298,4.50138 h -1.10119 c -0.60566,0 -1.09861,-0.0422 -1.09547,-0.0937 z"
       id="path37"
       transform="matrix(0.75000002,0,0,-0.75000002,219.1111,396.4436)"
       sodipodi:nodetypes="cscccccccssscscc" />
    <path
       style="fill:#ffffff;stroke-width:0.125"
       d="m 308.38162,132.46875 c 0.004,-0.0516 1.34391,-2.45625 2.97839,-5.34375 l 2.97177,-5.25 1.18975,-0.0355 1.18975,-0.0356 3.0754,5.3839 3.07541,5.3839 -1.14878,-0.0359 -1.14877,-0.0359 -2.50102,-4.51815 c -1.37556,-2.48499 -2.53557,-4.49733 -2.57779,-4.47187 -0.0422,0.0255 -1.16161,2.07269 -2.48752,4.5494 l -2.41075,4.50312 h -1.10623 c -0.60843,0 -1.10325,-0.0422 -1.09961,-0.0937 z"
       id="path38"
       transform="matrix(0.75000002,0,0,-0.75000002,219.1111,396.4436)" />
    <path
       style="fill:#ffffff;stroke-width:0.125"
       d="m 302.75,145.3125 v -5.375 h 1.29719 1.2972 l 0.82909,2.03125 c 0.456,1.11719 1.30272,3.2124 1.88161,4.65602 1.00357,2.50275 1.05889,2.60735 1.18975,2.25 0.0755,-0.20612 0.93721,-2.30008 1.91495,-4.65323 l 1.77771,-4.27845 1.28125,-0.003 1.28125,-0.003 v 5.375 5.375 h -0.875 -0.875 l -0.01,-4.65625 c -0.009,-4.19305 -0.0276,-4.60626 -0.18835,-4.1537 -0.0982,0.2764 -0.95446,2.35765 -1.90289,4.625 l -1.7244,4.12245 -0.8685,0.0334 -0.86849,0.0334 -1.875,-4.63521 -1.875,-4.63521 -0.0328,4.63308 -0.0328,4.63309 H 303.56098 302.75 Z"
       id="path39"
       transform="matrix(0.75000002,0,0,-0.75000002,219.1111,396.4436)" />
    <path
       style="fill:#ffffff;stroke-width:0.125"
       d="m 283.875,145.3125 v -5.375 h 0.875 0.875 v 2.25 2.25 h 3.625 3.625 v -2.25 -2.25 h 0.8125 0.8125 v 5.375 5.375 h -0.8125 -0.8125 v -2.5 -2.5 h -3.625 -3.625 v 2.5 2.5 h -0.875 -0.875 z"
       id="path40"
       transform="matrix(0.75000002,0,0,-0.75000002,219.1111,396.4436)" />
    <path
       style="fill:#ffffff;stroke-width:0.125"
       d="m 264.625,150.64365 c 0,-0.0241 1.18433,-2.44287 2.63184,-5.375 l 2.63183,-5.33115 h 0.96699 0.96699 l 2.61392,5.28125 c 1.43766,2.90469 2.634,5.32344 2.65855,5.375 0.0245,0.0516 -2.77119,0.0937 -6.21274,0.0937 -3.44156,0 -6.25738,-0.0197 -6.25738,-0.0438 z m 10.125,-1.19988 c 0,-0.19383 -3.77954,-8.00627 -3.87332,-8.00627 -0.0671,0 -3.7015,7.30169 -3.96638,7.96875 -0.0489,0.12301 0.77837,0.15625 3.88883,0.15625 2.41142,0 3.95087,-0.0463 3.95087,-0.11873 z"
       id="path41"
       transform="matrix(0.75000002,0,0,-0.75000002,219.1111,396.4436)" />
    <path
       style="fill:#ffffff;stroke-width:0.0883883"
       d="m 327.96496,150.88621 c -1.70608,-0.33377 -2.92211,-1.06955 -3.7993,-2.29882 -0.75821,-1.06254 -1.07991,-2.25204 -0.9879,-3.65279 0.0977,-1.48661 0.62841,-2.61874 1.71083,-3.6493 0.71221,-0.67809 1.66962,-1.19336 2.72282,-1.46539 0.87484,-0.22596 3.00488,-0.22859 3.95864,-0.005 2.1491,0.50408 3.73963,2.10614 4.18345,4.21379 0.20227,0.96057 0.12828,2.31254 -0.17404,3.17999 -0.28527,0.81853 -0.8946,1.72418 -1.54878,2.30193 -0.58949,0.52062 -1.68542,1.08582 -2.48599,1.28209 -0.79574,0.19508 -2.7935,0.2472 -3.57973,0.0934 z m 2.93622,-1.30125 c 1.40836,-0.26706 2.53185,-1.37406 2.9884,-2.94453 0.21542,-0.74103 0.14647,-2.36234 -0.13109,-3.08222 -0.2532,-0.65673 -0.90243,-1.5132 -1.43608,-1.8945 -0.70603,-0.50446 -1.2964,-0.66896 -2.54549,-0.70928 -1.7364,-0.0561 -2.65544,0.25675 -3.56934,1.21488 -0.83279,0.8731 -1.20495,1.84419 -1.20147,3.13508 0.003,1.26528 0.2666,2.0625 0.97435,2.95139 0.98222,1.23362 2.81455,1.72856 4.92072,1.32918 z"
       id="path42"
       transform="matrix(0.75000002,0,0,-0.75000002,219.1111,396.4436)" />
    <path
       style="fill:#ffffff;stroke-width:0.0883883"
       d="m 331.54469,127.23503 v -5.39169 h 1.14905 1.14905 v 2.20971 2.2097 h 4.59619 4.5962 v -2.2097 -2.20971 h 1.10485 1.10486 v 5.39169 5.39169 h -1.10486 -1.10485 v -2.56327 -2.56326 h -4.5962 -4.59619 v 2.56326 2.56327 h -1.14905 -1.14905 z"
       id="path43"
       transform="matrix(0.75000002,0,0,-0.75000002,219.1111,396.4436)" />
    <path
       style="fill:#ffffff;stroke-width:0.0883883"
       d="m 355.7631,127.23503 v -5.39169 h 1.27029 1.27029 l 4.37673,4.24165 c 2.4072,2.33291 4.39979,4.30176 4.42798,4.37522 0.0282,0.0735 0.0923,0.13357 0.14242,0.13357 0.0614,0 0.0912,-1.42857 0.0912,-4.37522 v -4.37522 h 1.06066 1.06066 v 5.39169 5.39169 l -1.25953,-0.006 -1.25954,-0.006 -4.28258,-4.153 c -2.35542,-2.28415 -4.36404,-4.26972 -4.46361,-4.41237 -0.0996,-0.14266 -0.21086,-0.26006 -0.24732,-0.2609 -0.0365,-8.4e-4 -0.0663,1.98721 -0.0663,4.41789 v 4.41942 h -1.06066 -1.06066 z"
       id="path44"
       transform="matrix(0.75000002,0,0,-0.75000002,219.1111,396.4436)" />
    <path
       style="fill:#ffffff;stroke-width:0.0883883"
       d="m 343.56551,145.31044 v -5.43588 h 0.88388 0.88388 v 2.65165 c 0,1.45841 0.0244,2.65165 0.0542,2.65165 0.0298,0 1.54085,-1.19443 3.35786,-2.6543 l 3.30363,-2.6543 1.10632,0.0248 1.10631,0.0247 -2.74777,2.15391 -2.74778,2.1539 0.25947,0.27678 c 0.19397,0.2069 4.33552,4.95891 5.30619,6.08831 0.12558,0.14612 0.0736,0.15468 -0.93928,0.15468 h -1.07222 l -2.39359,-2.74004 c -1.31648,-1.50702 -2.41735,-2.74004 -2.44638,-2.74004 -0.029,0 -0.52398,0.38116 -1.09988,0.84702 l -1.04711,0.84702 v 1.89302 1.89302 h -0.88388 -0.88388 z"
       id="path45"
       transform="matrix(0.75000002,0,0,-0.75000002,219.1111,396.4436)" />
    <path
       style="fill:#ffffff;stroke-width:0.0883883"
       d="m 360.88962,145.3031 v -5.44323 l 3.33666,0.0365 c 3.66866,0.0402 3.87386,0.0659 4.9029,0.61436 0.93497,0.49833 1.40513,1.30277 1.40948,2.41157 0.002,0.5564 -0.0404,0.75505 -0.26454,1.23401 -0.30098,0.64318 -0.87892,1.27093 -1.42795,1.55103 -0.57016,0.29087 -1.98891,0.43907 -4.22214,0.44103 l -1.96664,0.002 v 2.2981 2.2981 h -0.88388 -0.88389 z m 6.60284,-0.60015 c 0.85604,-0.27583 1.26555,-0.80207 1.26178,-1.62147 -0.004,-0.84797 -0.43769,-1.38886 -1.41227,-1.76089 -0.32461,-0.12392 -0.79184,-0.15853 -2.54116,-0.18825 l -2.14342,-0.0364 v 1.91732 1.91732 l 2.18761,-0.0397 c 1.72186,-0.0313 2.28552,-0.0713 2.64746,-0.1879 z"
       id="path46"
       transform="matrix(0.75000002,0,0,-0.75000002,219.1111,396.4436)" />
    <path
       style="fill:#ffffff;stroke-width:0.0883883"
       d="m 377.60896,148.47033 c 0.58273,-1.2518 1.71838,-3.69795 2.52366,-5.43589 l 1.46414,-3.15988 0.98224,0.003 0.98223,0.003 2.52964,5.43272 2.52963,5.43273 h -0.94615 -0.94615 l -0.73392,-1.63519 -0.73391,-1.63518 h -2.71631 -2.71632 l -0.73012,1.63518 -0.73012,1.63519 h -0.90902 -0.90902 z m 6.57841,-3.49134 c -0.30509,-0.69275 -0.78718,-1.78693 -1.0713,-2.43152 -0.28413,-0.64459 -0.54394,-1.14177 -0.57735,-1.10485 -0.0826,0.0913 -2.11527,4.62868 -2.11527,4.72181 0,0.0408 0.97169,0.0741 2.15932,0.0741 h 2.15932 z"
       id="path47"
       transform="matrix(0.75000002,0,0,-0.75000002,219.1111,396.4436)" />
    <path
       style="fill:#ffffff;stroke-width:0.0883883"
       d="m 379.98151,127.23503 v -5.39169 h 1.14904 1.14905 v 5.39169 5.39169 h -1.14905 -1.14904 z"
       id="path49"
       transform="matrix(0.75000002,0,0,-0.75000002,219.1111,396.4436)" />
    <path
       style="fill:#ffffff;stroke-width:0.0883883"
       d="m 392.79782,127.23503 v -5.39169 h 1.14904 1.14905 v 2.60745 c 0,1.4341 0.0213,2.60746 0.0473,2.60746 0.026,0 1.92145,-1.17429 4.21206,-2.60953 l 4.16474,-2.60953 1.4575,0.0242 1.4575,0.0242 -3.41834,2.06782 c -1.88009,1.1373 -3.43509,2.09493 -3.45558,2.12807 -0.0205,0.0331 1.57172,1.50474 3.53823,3.27022 1.9665,1.76548 3.57546,3.22417 3.57546,3.24152 0,0.0174 -0.60657,0.031 -1.34793,0.0303 l -1.34792,-0.001 -3.04899,-2.7388 c -1.67695,-1.50634 -3.08895,-2.73635 -3.13779,-2.73335 -0.0488,0.003 -0.66552,0.37359 -1.37042,0.82352 l -1.28163,0.81806 -0.0238,1.91652 -0.0238,1.91653 h -1.14733 -1.14732 z"
       id="path50"
       transform="matrix(0.75000002,0,0,-0.75000002,219.1111,396.4436)" />
    <path
       style="fill:#ffffff;stroke-width:0.0883883"
       d="M 398.27789,145.92916 V 141.112 h -2.12132 -2.12132 v -0.61872 -0.61872 h 5.17072 5.17072 v 0.61872 0.61872 h -2.12132 -2.12132 v 4.81716 4.81717 h -0.92808 -0.92808 z"
       id="path51"
       transform="matrix(0.75000002,0,0,-0.75000002,219.1111,396.4436)" />
    <path
       style="fill:#ffffff;stroke-width:0.0883883"
       d="m 414.8949,127.23503 v -5.39169 h 1.14905 1.14905 v 2.20971 2.2097 h 4.59619 4.5962 v -2.2097 -2.20971 h 1.14905 1.14905 v 5.39169 5.39169 h -1.14905 -1.14905 v -2.56327 -2.56326 h -4.5962 -4.59619 v 2.56326 2.56327 h -1.14905 -1.14905 z"
       id="path52"
       transform="matrix(0.75000002,0,0,-0.75000002,219.1111,396.4436)" />
    <path
       style="fill:#ffffff;stroke-width:0.0883883"
       d="m 411.35937,145.31044 v -5.43588 h 0.88388 0.88389 v 5.43588 5.43589 h -0.88389 -0.88388 z"
       id="path53"
       transform="matrix(0.75000002,0,0,-0.75000002,219.1111,396.4436)" />
    <path
       style="fill:#ffffff;stroke-width:0.0883883"
       d="m 419.93882,150.68313 c 0.003,-0.0382 1.12699,-2.47576 2.49735,-5.41688 l 2.49156,-5.3475 0.9792,-0.0248 0.9792,-0.0249 2.50551,5.37235 c 1.37804,2.95479 2.52063,5.40218 2.53909,5.43864 0.0185,0.0365 -0.39637,0.0655 -0.92183,0.0645 l -0.9554,-0.002 -0.72084,-1.6113 -0.72085,-1.6113 -2.7263,-0.0228 -2.7263,-0.0228 -0.71876,1.61375 -0.71877,1.61375 -0.89432,0.0252 c -0.49188,0.0139 -0.89172,-0.006 -0.88854,-0.0442 z m 8.10079,-4.55509 c -0.21169,-0.53079 -2.04195,-4.63403 -2.09055,-4.68681 -0.0347,-0.0377 -0.53408,0.99646 -1.10972,2.2981 -0.57565,1.30163 -1.06225,2.39644 -1.08133,2.4329 -0.0191,0.0365 0.94638,0.0663 2.14548,0.0663 1.70873,0 2.17066,-0.0239 2.13612,-0.11048 z"
       id="path55"
       transform="matrix(0.75000002,0,0,-0.75000002,219.1111,396.4436)" />
  </g>
</svg>
